<svg width="102px" height="115px" viewBox="0 0 102 115" fill="none" xmlns="http://www.w3.org/2000/svg" transform="rotate(0) scale(1, 1)">
  <g id="iconfinder___library_book_shelf_archive_3371910 copy 7">
    <circle id="Mask" cx="50.5579" cy="65.8542" r="48.906" fill="#edeff3" />
    <g id="Mask group">
      <mask id="mask0_3_6464" style="mask-type:alpha" maskUnits="userSpaceOnUse" x="0" y="0" width="102" height="115">
        <path id="Mask_2" d="M99.4639 65.8542C99.4639 92.8643 77.5679 114.76 50.5579 114.76C23.5478 114.76 1.65188 92.8643 1.65188 65.8542C1.65188 38.8442 -13.9201 0 50.5579 0C115.036 0 99.4639 38.8442 99.4639 65.8542Z" fill="#edeff3" />
      </mask>
      <g mask="url(#mask0_3_6464)">
        <g id="iconfinder___meeting_video_chat_5681461">
          <path id="Path" d="M89.1679 98.4522H13.6639V48.6882C13.6639 46.8006 15.2083 45.2562 17.0959 45.2562H85.7359C87.6235 45.2562 89.1679 46.8006 89.1679 48.6882V98.4522Z" fill="#ccd4dc" />
          <path id="Path_2" d="M66.8599 91.5882C66.8599 93.4758 65.3155 95.0202 63.4279 95.0202H39.4039C37.5163 95.0202 35.9719 93.4758 35.9719 91.5882H6.79993V98.4522C6.79993 100.34 8.34433 101.884 10.2319 101.884H92.5999C94.4875 101.884 96.0319 100.34 96.0319 98.4522V91.5882H66.8599Z" fill="#000f38" />
          <g id="Group 10">
            <path id="Path_3" d="M77.4279 58.4222C79.5043 58.4222 81.2031 56.7233 81.2031 54.647V20.6702H20.7999V54.647C20.7999 56.7233 22.4988 58.4222 24.5751 58.4222H77.4279Z" fill="#32acfc" />
            <path id="Path_4" d="M56.2868 48.9842H38.1659C36.8446 48.9842 35.9008 48.0404 35.9008 46.7191V32.3733C35.9008 31.052 36.8446 30.1082 38.1659 30.1082H56.2868C57.6082 30.1082 58.552 31.052 58.552 32.3733V46.7191C58.552 48.0404 57.6082 48.9842 56.2868 48.9842Z" fill="#ffffff" />
            <path id="Path_5" d="M54.7767 40.49L66.1023 47.0966C66.8574 47.4741 67.9899 46.9078 67.9899 45.964V32.9396C67.9899 31.9958 67.0461 31.4295 66.1023 31.807L54.7767 38.4136C54.0217 38.7912 54.0217 39.9237 54.7767 40.49Z" fill="#ffffff" />
            <path id="Path_6" d="M77.4279 11.2322H24.5751C22.4988 11.2322 20.7999 12.931 20.7999 15.0074V22.5578H81.2031V15.0074C81.2031 12.931 79.5043 11.2322 77.4279 11.2322Z" fill="#1b262c" />
            <path id="Path_7" d="M26.4628 16.895H45.3388" stroke="#32acfc" stroke-width="3.7752" stroke-dasharray="3.78 3.78" />
          </g>
        </g>
      </g>
    </g>
  </g>
</svg>