<svg width="127px" height="125px" viewBox="0 0 127 125" fill="none" xmlns="http://www.w3.org/2000/svg" transform="rotate(0) scale(1, 1)">
  <g id="iconfinder___library_book_shelf_archive_3371910 copy 7">
    <circle id="Mask" cx="64.906" cy="75.906" r="48.906" fill="#edeff3" />
    <g id="Mask group">
      <mask id="mask0_1_661" style="mask-type:alpha" maskUnits="userSpaceOnUse" x="0" y="0" width="127" height="125">
        <path id="Mask_2" d="M113.808 75.906C113.808 102.916 91.9124 124.812 64.9024 124.812C37.8923 124.812 15.9964 102.916 15.9964 75.906C-31.0036 47 37.8923 0 64.9024 0C91.9124 0 153.996 52 113.808 75.906Z" fill="#4d3737" />
      </mask>
      <g mask="url(#mask0_1_661)">
        <g id="iconfinder__computer_share_screen_share_5110608 (1)">
          <rect id="Rectangle" x="54" y="115" width="22.4356" height="13.8721" fill="#32acfc" />
          <path id="Path" d="M101.639 107.274H28.3513V62.9155C28.3513 60.9637 29.9482 59.3668 31.9 59.3668L98.0903 59.3668C100.042 59.3668 101.639 60.9637 101.639 62.9155V107.274Z" fill="#dbe2ea" />
          <path id="Path_2" d="M101.639 102.168H28.3513V111.773C28.3513 113.725 29.9482 115.322 31.9 115.322H98.0903C100.042 115.322 101.639 113.725 101.639 111.773V102.168Z" fill="#32acfc" />
          <g id="Avatars">
            <g id="Group 24">
              <g id="Group 17">
                <g id="Group 11">
                  <path id="Path_3" d="M102.067 43C94.3301 43 88 49.3301 88 57.0669C88 64.8036 94.3301 71.1337 102.067 71.1337C109.804 71.1337 116.134 64.8036 116.134 57.0669C116.134 49.3301 109.804 43 102.067 43Z" fill="#32acfc" />
                  <path id="Path_4" d="M102.067 71.1337C105.584 71.1337 108.866 69.9615 111.21 67.8515C110.272 64.1003 106.521 62.6936 102.067 62.6936C97.6123 62.6936 93.8611 64.1003 92.9233 67.8515C95.2678 69.9615 98.5501 71.1337 102.067 71.1337Z" fill="#000f38" />
                  <circle id="Oval" cx="102.067" cy="54.7224" r="4.68895" fill="#ffffff" />
                </g>
                <g id="Group 13">
                  <path id="Path_5" d="M28.0669 43C20.3301 43 14 49.3301 14 57.0669C14 64.8036 20.3301 71.1337 28.0669 71.1337C35.8036 71.1337 42.1337 64.8036 42.1337 57.0669C42.1337 49.3301 35.8036 43 28.0669 43Z" fill="#32acfc" />
                  <path id="Path_6" d="M28.0668 71.1337C31.5835 71.1337 34.8658 69.9615 37.2103 67.8515C36.2725 64.1003 32.5213 62.6936 28.0668 62.6936C23.6123 62.6936 19.8611 64.1003 18.9233 67.8515C21.2678 69.9615 24.5501 71.1337 28.0668 71.1337Z" fill="#000f38" />
                  <circle id="Oval_2" cx="28.0669" cy="54.7224" r="4.68895" fill="#ffffff" />
                </g>
              </g>
              <g id="Group 18">
                <g id="Group 14">
                  <path id="Path_7" d="M65.0669 15C57.3301 15 51 21.3301 51 29.0669C51 36.8036 57.3301 43.1337 65.0669 43.1337C72.8036 43.1337 79.1337 36.8036 79.1337 29.0669C79.1337 21.3301 72.8036 15 65.0669 15Z" fill="#32acfc" />
                  <path id="Path_8" d="M65.0668 43.1337C68.5835 43.1337 71.8658 41.9615 74.2103 39.8515C73.2725 36.1003 69.5213 34.6936 65.0668 34.6936C60.6123 34.6936 56.8611 36.1003 55.9233 39.8515C58.2678 41.9615 61.5501 43.1337 65.0668 43.1337Z" fill="#000f38" />
                  <circle id="Oval_3" cx="65.0669" cy="26.7224" r="4.68895" fill="#ffffff" />
                </g>
              </g>
            </g>
          </g>
          <g id="Group">
            <path id="Path (Stroke)" fill-rule="evenodd" clip-rule="evenodd" d="M64.995 75.8416C65.975 75.8416 66.7694 76.636 66.7694 77.6159V77.6698C66.7694 78.6498 65.975 79.4442 64.995 79.4442C64.0151 79.4442 63.2207 78.6498 63.2207 77.6698V77.6159C63.2207 76.636 64.0151 75.8416 64.995 75.8416Z" fill="#000f38" />
          </g>
          <g id="Group_2">
            <path id="Path (Stroke)_2" fill-rule="evenodd" clip-rule="evenodd" d="M77.7806 83.5188C78.3027 84.348 78.0537 85.4435 77.2245 85.9657L77.1775 85.9952C76.3482 86.5174 75.2527 86.2684 74.7306 85.4391C74.2085 84.6099 74.4574 83.5143 75.2867 82.9922L75.3337 82.9626C76.1629 82.4405 77.2585 82.6895 77.7806 83.5188Z" fill="#000f38" />
          </g>
          <g id="Group_3">
            <path id="Path (Stroke)_3" fill-rule="evenodd" clip-rule="evenodd" d="M52.2096 83.5188C52.7317 82.6895 53.8272 82.4405 54.6565 82.9626L54.7035 82.9922C55.5327 83.5143 55.7817 84.6099 55.2596 85.4391C54.7375 86.2684 53.6419 86.5174 52.8127 85.9952L52.7657 85.9657C51.9364 85.4435 51.6875 84.348 52.2096 83.5188Z" fill="#000f38" />
          </g>
        </g>
      </g>
    </g>
  </g>
</svg>