<svg width="16px" height="23px" viewBox="0 0 16 23" version="1.1" xmlns="http://www.w3.org/2000/svg" xmlns:xlink="http://www.w3.org/1999/xlink" transform="rotate(0) scale(1, 1)">
  <title>5FED87D8-E9D9-4E7E-8AB3-B0FAE3AB730B</title>
  <g id="Hardware-Connect" stroke="none" stroke-width="1" fill="none" fill-rule="evenodd">
    <g id="Hardware-Test-Loading-2" transform="translate(-306.000000, -248.000000)" class="bColorFill" fill="#32acfc" fill-rule="nonzero">
      <g id="Speak-Into-Mic" transform="translate(226.000000, 230.000000)">
        <g id="Mic-Circle" transform="translate(68.000000, 10.000000)">
          <path d="M26.5625137,15.0686737 C27.006851,15.0686737 27.3700332,15.4053229 27.4232782,15.8369043 L27.43,15.9466375 L27.43,17.2905289 C27.43,21.0459289 24.7404486,24.1951312 21.1911667,24.7813682 L20.9478595,24.8173444 L20.867,24.826 L20.867,28.557 L23.9375957,28.5573615 C24.3449496,28.5573615 24.6837218,28.8402719 24.7783179,29.2198289 L24.797931,29.3256008 L24.8046445,29.4353253 C24.8046445,29.8810095 24.4760599,30.2519796 24.0468599,30.3064148 L23.9375957,30.3132891 L16.0628418,30.3132891 C15.5811219,30.3132891 15.1953555,29.9182839 15.1953555,29.4353253 C15.1953555,28.9895174 15.5240559,28.618652 15.9535109,28.5642337 L16.0628418,28.5573615 L19.132,28.557 L19.132,24.826 L19.0521696,24.817342 C15.5447711,24.3590203 12.8190815,21.4078737 12.5861535,17.7933145 L12.5739687,17.5400825 L12.57,17.2905289 L12.57,15.9466375 C12.57,15.4637689 12.9561209,15.0686737 13.4374863,15.0686737 C13.8821508,15.0686737 14.2450562,15.4052463 14.2982566,15.8368866 L14.3049727,15.9466375 L14.3049727,17.2905289 C14.3049727,20.5134804 16.8625212,23.1320222 20.0002187,23.1320222 C23.0645806,23.1320222 25.5757609,20.6337951 25.6909027,17.5143757 L25.6950273,17.2905289 L25.6950273,15.9466375 C25.6950273,15.463679 26.0807938,15.0686737 26.5625137,15.0686737 Z M20.000175,8 C21.9301715,8 23.5,9.59825101 23.5,11.562753 L23.5,17.1295547 C23.5,19.0940567 21.9301715,20.6923077 20.000175,20.6923077 C18.0698285,20.6923077 16.5,19.0940567 16.5,17.1295547 L16.5,11.562753 C16.5,9.59825101 18.0698285,8 20.000175,8 Z" id="Microphone"/>
        </g>
      </g>
    </g>
  </g>
</svg>