<?xml version="1.0" encoding="UTF-8"?><svg version="1.1" width="40px" height="40px" viewBox="0 0 40.0 40.0" xmlns="http://www.w3.org/2000/svg" xmlns:xlink="http://www.w3.org/1999/xlink">
  <defs>
    <clipPath id="i0">
      <path d="M40,0 L40,40 L0,40 L0,0 L40,0 Z"></path>
    </clipPath>
    <clipPath id="i1">
      <path d="M20,0 C31.0458374,0 40,8.95416258 40,20 C40,31.0458374 31.0458374,40 20,40 C8.95416258,40 0,31.0458374 0,20 C0,8.95416258 8.95416258,0 20,0 Z"></path>
    </clipPath>
    <clipPath id="i2">
      <path d="M21.1547852,0 L26.5859986,5.43121336 L27.0669556,4.83032219 L33.3551026,11.1184692 C32.6358033,20.9249877 24.8458863,28.7658691 15.0622559,29.56604 L6.883545,21.3873291 L7.19451906,21.0485839 L0,13.8540649 L21.1547852,0 Z"></path>
    </clipPath>
    <clipPath id="i3">
      <path d="M16.7736816,0 C20.5203247,0 23.6898804,2.47100828 24.7415161,5.87219242 C28.2931519,6.11877445 31.0983277,9.07592773 31.0983277,12.6901245 C31.0983277,16.4657593 28.0374145,19.5266723 24.2614746,19.5266723 L7.96173094,19.5269776 C3.56445312,19.5269776 0,15.9622192 0,11.5649414 C0,7.16766359 3.56445312,3.60290523 7.96173094,3.60290523 C8.58428953,3.60290523 9.19006352,3.67462156 9.77142336,3.8095093 C11.2573242,1.51702883 13.8381958,0 16.7736816,0 Z"></path>
    </clipPath>
    <clipPath id="i4">
      <path d="M1.2469482,0 C4.99359125,0 8.16314695,2.47100828 9.21478266,5.87219242 C12.7664184,6.11877445 15.5715942,9.07592773 15.5715942,12.6901245 C15.5715942,16.4657593 12.5106811,19.5266723 8.73474117,19.5266723 L0,19.5266723 L0,0.0936889844 C0.406799297,0.0326538281 0.823059063,0 1.2469482,0 Z"></path>
    </clipPath>
    <clipPath id="i5">
      <path d="M9.17602539,0 L9.17602539,9.17602539 L18.3520508,9.17602539 C18.3520508,14.2437744 14.2437744,18.3520508 9.17602539,18.3520508 C4.10797117,18.3520508 0,14.2437744 0,9.17602539 C0,4.10827633 4.10797117,0 9.17602539,0 Z"></path>
    </clipPath>
    <clipPath id="i6">
      <path d="M0,0 C5.06774898,0 9.17602539,4.10827633 9.17602539,9.17602531 L0,9.17602531 Z"></path>
    </clipPath>
    <clipPath id="i7">
      <path d="M7.65319828,0 L7.65319828,9.17602539 L0,4.11254883 C1.64306641,1.63421625 4.45709227,0 7.65319828,0 Z"></path>
    </clipPath>
    <clipPath id="i8">
      <path d="M12.8112793,0 C12.8112793,5.06774898 8.70300289,9.17602539 3.63525391,9.17602539 C2.34375,9.17602539 1.11480711,8.90869141 0,8.42712398 L3.63525391,0 Z"></path>
    </clipPath>
    <clipPath id="i9">
      <path d="M9.17724609,0 C9.17724609,5.06774898 5.06896969,9.17602539 0.00122070312,9.17602539 L0,0.0027465625 Z"></path>
    </clipPath>
  </defs>
  <g clip-path="url(#i0)">
    <g clip-path="url(#i1)">
      <polygon points="0,0 40,0 40,40 0,40 0,0" stroke="none" fill="#0E0CED"></polygon>
      <polygon points="0,0 40,0 40,40 0,40 0,0" stroke="none" fill="rgba(255, 255, 255, 0.304969)"></polygon>
    </g>
    <g transform="translate(6.589965781249994 10.365600624999999)">
      <g clip-path="url(#i2)">
        <polygon points="0,0 33.3551026,0 33.3551026,29.56604 0,29.56604 0,0" stroke="none" fill="#3636EB"></polygon>
      </g>
    </g>
    <g transform="translate(4.450988750000004 7.225341796875)">
      <g clip-path="url(#i3)">
        <polygon points="0,0 31.0983277,0 31.0983277,19.5269776 0,19.5269776 0,0" stroke="none" fill="#FFFFFF"></polygon>
      </g>
    </g>
    <g transform="translate(19.9777221875 7.225341796875)">
      <g clip-path="url(#i4)">
        <polygon points="0,0 15.5715942,0 15.5715942,19.5266723 0,19.5266723 0,0" stroke="none" fill="#E9EDF5"></polygon>
      </g>
    </g>
    <g transform="translate(10.8029175 16.105651875)">
      <g clip-path="url(#i5)">
        <polygon points="0,0 18.3520508,0 18.3520508,18.3520508 0,18.3520508 0,0" stroke="none" fill="#E1E1E6"></polygon>
      </g>
    </g>
    <g transform="translate(21.717529296875 14.367065468749999)">
      <g clip-path="url(#i6)">
        <polygon points="0,0 9.17602539,0 9.17602539,9.17602531 0,9.17602531 0,0" stroke="none" fill="#FF583E"></polygon>
      </g>
    </g>
    <g transform="translate(12.325744609375 16.105651875)">
      <g clip-path="url(#i7)">
        <polygon points="0,0 7.65319828,0 7.65319828,9.17602539 0,9.17602539 0,0" stroke="none" fill="#FFCE00"></polygon>
      </g>
    </g>
    <g transform="translate(16.343688984375 25.281677265625)">
      <g clip-path="url(#i8)">
        <polygon points="0,0 12.8112793,0 12.8112793,9.17602539 0,9.17602539 0,0" stroke="none" fill="#87C7FF"></polygon>
      </g>
    </g>
    <g transform="translate(19.9777221875 25.281677265625)">
      <g clip-path="url(#i9)">
        <polygon points="0,0 9.17724609,0 9.17724609,9.17602539 0,9.17602539 0,0" stroke="none" fill="#65B1FC"></polygon>
      </g>
    </g>
  </g>
</svg>