<?xml version="1.0" encoding="UTF-8"?><svg version="1.1" width="40px" height="40px" viewBox="0 0 40.0 40.0" xmlns="http://www.w3.org/2000/svg" xmlns:xlink="http://www.w3.org/1999/xlink">
  <defs>
    <clipPath id="i0">
      <path d="M40,0 L40,40 L0,40 L0,0 L40,0 Z"></path>
    </clipPath>
    <clipPath id="i1">
      <path d="M20,0 C31.045695,0 40,8.954305 40,20 C40,31.045695 31.045695,40 20,40 C8.954305,40 0,31.045695 0,20 C0,8.954305 8.954305,0 20,0 Z"></path>
    </clipPath>
    <clipPath id="i2">
      <path d="M16.3736719,0 L25.48625,9.11257813 L28.705625,6.49914062 L34.0238281,11.8173437 C34.2248437,12.955 34.3301563,14.1257031 34.3301563,15.3210156 C34.3301563,25.7027344 26.4197656,34.2361719 16.2975,35.2246094 L12.1903906,31.1175 L12.8460937,27.1124219 L11.1888281,25.4551562 L12.1533594,23.5867187 L0,11.4333594 L2.85046875,6.49914062 L5.320625,8.96929687 L6.77273437,9.01234375 L7.49304687,7.4259375 L10.7891406,9.86242187 L13.8590625,12.9323437 L14.4389844,9.77125 L12.8234375,8.15570312 L14.4646875,6.12882812 L12.3547656,4.01890625 L16.3736719,0 Z"></path>
    </clipPath>
    <clipPath id="i3">
      <path d="M3.21835937,0 L3.99640625,6.11703125 L3.21835937,10.6141406 L2.91875,10.6141406 L2.91875,16.2766406 L1.0015625,16.2766406 L1.0015625,10.6142187 L0,10.6142969 L0,6.0684375 C0,5.44765625 0.401953125,4.8984375 0.993671875,4.71070312 L2.40320312,4.26328125 L2.40304687,3.95351563 C1.67054687,3.63757813 1.15765625,2.90914063 1.15765625,2.06070313 C1.15765625,0.922578125 2.08023437,0 3.21835937,0 Z"></path>
    </clipPath>
    <clipPath id="i4">
      <path d="M0,0 C1.138125,0 2.06070313,0.922578125 2.06070313,2.06070313 C2.06070313,2.90914063 1.5478125,3.63757813 0.8153125,3.95351563 L0.81515625,4.26328125 L2.2246875,4.71070312 C2.81632812,4.8984375 3.21835937,5.44765625 3.21835937,6.0684375 L3.21835937,10.6142188 L2.21679687,10.6141406 L2.21679687,16.2765625 L0.299609375,16.2765625 L0.299609375,10.6140625 L0,10.6140625 Z"></path>
    </clipPath>
    <clipPath id="i5">
      <path d="M1.54070312,0 L1.98570313,1.49484375 L1.91867188,4.69054687 L1.54070312,7.90234375 L0.954765625,7.90234375 L0.954765625,2.26085937 L0,2.26085937 L1.54070312,0 Z"></path>
    </clipPath>
    <clipPath id="i6">
      <path d="M0,0 L1.54078125,2.26085937 L0.5859375,2.26085938 L0.5859375,7.90234375 L0,7.90234375 L0,0 Z"></path>
    </clipPath>
    <clipPath id="i7">
      <path d="M2.26085937,0 L2.26085937,0.973046875 C5.04976563,1.19046875 7.25296875,3.52765625 7.25296875,6.37125 L6.08109375,6.37125 C6.08109375,4.17398437 4.4028125,2.36148438 2.26085937,2.14789063 L2.26085937,3.08140625 L0,1.54070313 L2.26085937,0 Z"></path>
    </clipPath>
    <clipPath id="i8">
      <path d="M5.16429688,0 L7.42515625,1.54070313 L5.16429688,3.08148437 L5.16429688,2.13484375 C2.94085938,2.26585938 1.171875,4.11554687 1.171875,6.37132812 L0,6.37132812 C0,3.46921875 2.29429688,1.09351563 5.16429688,0.96125 L5.16429688,0 Z"></path>
    </clipPath>
    <clipPath id="i9">
      <path d="M2.84179688,0 L4.64671875,2.84179688 L2.84179688,5.68359375 C1.27234375,5.68359375 0,4.41125 0,2.84179688 C0,1.27234375 1.27234375,0 2.84179688,0 Z"></path>
    </clipPath>
    <clipPath id="i10">
      <path d="M0,0 C1.56945312,7.8125e-05 2.84179688,1.27234375 2.84179688,2.84179688 C2.84179688,4.41125 1.56945312,5.68359375 0,5.68359375 L0,0 Z"></path>
    </clipPath>
    <clipPath id="i11">
      <path d="M4.93421875,0 L4.93421875,4.93421875 L0,4.93421875 L0,0 L4.93421875,0 Z"></path>
    </clipPath>
    <clipPath id="i12">
      <path d="M2.85046875,0 L5.7009375,4.93421875 L0,4.93421875 L2.85046875,0 Z"></path>
    </clipPath>
  </defs>
  <g clip-path="url(#i0)">
    <g clip-path="url(#i1)">
      <polygon points="0,0 40,0 40,40 0,40 0,0" stroke="none" fill="#00A3FF"></polygon>
    </g>
    <g transform="translate(5.669843750000002 4.678984374999999)">
      <g clip-path="url(#i2)">
        <polygon points="0,0 34.3301563,0 34.3301563,35.2246094 0,35.2246094 0,0" stroke="none" fill="#0076FF"></polygon>
      </g>
    </g>
    <g transform="translate(16.85874999999999 19.51984375000001)">
      <g clip-path="url(#i3)">
        <polygon points="0,0 3.99640625,0 3.99640625,16.2766406 0,16.2766406 0,0" stroke="none" fill="#FFFFFF"></polygon>
      </g>
      <g transform="translate(3.2183593749999773 0.0)">
        <g clip-path="url(#i4)">
          <polygon points="0,0 3.21835937,0 3.21835937,16.2765625 0,16.2765625 0,0" stroke="none" fill="#EBEFF8"></polygon>
        </g>
      </g>
    </g>
    <g transform="translate(18.49335937500001 10.57390624999996)">
      <g clip-path="url(#i5)">
        <polygon points="0,0 1.98570313,0 1.98570313,7.90234375 0,7.90234375 0,0" stroke="none" fill="#414162"></polygon>
      </g>
      <g transform="translate(1.540703125000036 0.0)">
        <g clip-path="url(#i6)">
          <polygon points="0,0 1.54078125,0 1.54078125,7.90234375 0,7.90234375 0,0" stroke="none" fill="#29293A"></polygon>
        </g>
      </g>
    </g>
    <g transform="translate(10.902109374999998 12.104921875)">
      <g clip-path="url(#i7)">
        <polygon points="0,0 7.25296875,0 7.25296875,6.37125 0,6.37125 0,0" stroke="none" fill="#414162"></polygon>
      </g>
    </g>
    <g transform="translate(21.82703125 12.105)">
      <g clip-path="url(#i8)">
        <polygon points="0,0 7.42515625,0 7.42515625,6.37132812 0,6.37132812 0,0" stroke="none" fill="#29293A"></polygon>
      </g>
    </g>
    <g transform="translate(17.192265625 3.846640625)">
      <g clip-path="url(#i9)">
        <polygon points="0,0 4.64671875,0 4.64671875,5.68359375 0,5.68359375 0,0" stroke="none" fill="#FD8C71"></polygon>
      </g>
      <g transform="translate(2.841796875 0.0)">
        <g clip-path="url(#i10)">
          <polygon points="0,0 2.84179688,0 2.84179688,5.68359375 0,5.68359375 0,0" stroke="none" fill="#F96551"></polygon>
        </g>
      </g>
    </g>
    <g transform="translate(29.441328125 11.178125)">
      <g clip-path="url(#i11)">
        <polygon points="0,0 4.93421875,0 4.93421875,4.93421875 0,4.93421875 0,0" stroke="none" fill="#87EA2E"></polygon>
      </g>
    </g>
    <g transform="translate(5.669921875000002 11.178125000000001)">
      <g clip-path="url(#i12)">
        <polygon points="0,0 5.7009375,0 5.7009375,4.93421875 0,4.93421875 0,0" stroke="none" fill="#68E9FF"></polygon>
      </g>
    </g>
  </g>
</svg>