<?xml version="1.0" encoding="UTF-8"?><svg version="1.1" width="40px" height="40px" viewBox="0 0 40.0 40.0" xmlns="http://www.w3.org/2000/svg" xmlns:xlink="http://www.w3.org/1999/xlink">
  <defs>
    <clipPath id="i0">
      <path d="M40,0 L40,40 L0,40 L0,0 L40,0 Z"></path>
    </clipPath>
    <clipPath id="i1">
      <path d="M20,0 C31.045695,0 40,8.954305 40,20 C40,31.045695 31.045695,40 20,40 C8.954305,40 0,31.045695 0,20 C0,8.954305 8.954305,0 20,0 Z"></path>
    </clipPath>
    <clipPath id="i2">
      <path d="M11.1127344,0 L15.8464844,1.17179688 L23.9771875,9.3025 L24.2751563,9.02625 L34.1523438,18.9034375 C32.6782812,27.0227344 26.3025,33.4329688 18.2017188,34.9596875 L2.66609375,19.4241406 L3.68109375,18.9939062 L0,15.3128125 L4.761875,4.97109375 L12.8903906,1.77765625 L11.1127344,0 Z"></path>
    </clipPath>
    <clipPath id="i3">
      <path d="M11.8910899,18.8756621 L11.9084279,18.9936135 C11.9601988,19.555801 11.5777751,20.0567385 11.0374626,20.1661297 L10.9193654,20.1834572 L10.8682912,20.1869729 L10.8178029,20.1881447 C10.2592092,20.1881447 9.78264668,19.7615822 9.73030293,19.1943947 C9.67853209,18.6329364 10.0609557,18.131367 10.6012682,18.0218882 L10.7193654,18.004551 C11.2800217,17.9535093 11.7816057,18.3359815 11.8910899,18.8756621 Z M7.69436126,17.7125785 L7.81077168,17.738926 C8.35327168,17.8927801 8.68343834,18.4297871 8.59102538,18.973282 L8.56467793,19.0897072 C8.44006855,19.5308531 8.06074997,19.831515 7.63132108,19.8785618 L7.51311543,19.8850197 C7.4145998,19.8850197 7.31381855,19.8717385 7.21467793,19.8436135 C6.67217793,19.6897593 6.34201126,19.1527524 6.43442422,18.6092575 L6.46077168,18.4928322 C6.61396959,17.9503322 7.15093279,17.6201656 7.69436126,17.7125785 Z M14.9321807,17.5930906 L14.9912404,17.6967385 C15.2428029,18.2013218 15.0683376,18.8073079 14.6049811,19.1050024 L14.5013186,19.163926 C14.3835451,19.2231057 14.2604982,19.2585549 14.1367922,19.2725808 L14.0130373,19.279551 C13.6122561,19.279551 13.2256154,19.057676 13.0342092,18.6740822 C12.7819175,18.1694989 12.9563342,17.5635128 13.4202592,17.2658183 L13.5240529,17.2068947 C14.0286363,16.9553322 14.6339418,17.1297975 14.9321807,17.5930906 Z M5.09283111,16.3679174 L5.19905293,16.438926 C5.64665337,16.7762586 5.76080755,17.3917999 5.48328025,17.8639545 L5.41225605,17.970176 C5.22426777,18.2196877 4.95020649,18.3657204 4.66266453,18.39833 L4.53881855,18.4053322 C4.30913105,18.4053322 4.07788105,18.3334572 3.88030293,18.1842385 C3.43270248,17.8461804 3.31848094,17.2305873 3.59599862,16.758429 L3.66702168,16.6522072 C4.00507971,16.2046068 4.62067282,16.0904526 5.09283111,16.3679174 Z M17.2989001,15.2935725 L17.3981936,15.3740822 C17.8124235,15.7520398 17.8696301,16.3751983 17.549797,16.8200857 L17.4692873,16.9193947 C17.2844659,17.1222965 17.0405245,17.2396753 16.7876455,17.2690713 L16.6606936,17.276426 C16.3974904,17.276426 16.1334279,17.1818947 15.9239748,16.9904885 C15.5097449,16.6125309 15.4526056,15.9886988 15.7724483,15.5443406 L15.8529592,15.445176 C16.2309168,15.0309461 16.8540752,14.9737394 17.2989001,15.2935725 Z M3.15512054,14.1775466 L3.2286623,14.2818947 C3.52464444,14.758513 3.41038663,15.3738989 2.98159227,15.7145885 L2.8770998,15.7881447 C2.7333498,15.8775197 2.5770998,15.9298947 2.4191498,15.9472697 L2.3005373,15.9537697 C1.97630119,15.9537697 1.65749718,15.808708 1.44530496,15.5421785 L1.37092793,15.4365822 C1.07494578,14.9606894 1.1892036,14.3446817 1.61799795,14.0038996 L1.72249043,13.9303322 C2.19903618,13.6343501 2.81448421,13.7492815 3.15512054,14.1775466 Z M18.6926344,12.3026855 L18.8060842,12.3397072 C19.3318133,12.5438739 19.6105008,13.1094156 19.4681059,13.6418822 L19.4310842,13.7553322 C19.2799123,14.1448635 18.9294045,14.3989729 18.5412507,14.4458994 L18.4106936,14.4537697 C18.2787404,14.4537697 18.1451467,14.4303322 18.0154592,14.379551 C17.48973,14.1761135 17.2110425,13.6106204 17.3540726,13.078157 L17.3912404,12.9647072 C17.5946779,12.4389781 18.160171,12.1602906 18.6926344,12.3026855 Z M2.14421901,11.4479628 L2.1724123,11.563926 C2.27595397,12.1180926 1.94189841,12.6525232 1.41415675,12.8115139 L1.29819355,12.8397072 L1.1967873,12.8537697 L1.0958498,12.8584572 C0.579521676,12.8584572 0.120146676,12.4912697 0.0224904259,11.9654885 C-0.0811241575,11.4113218 0.252994593,10.8768913 0.780681491,10.7179005 L0.896631051,10.6897072 C1.45079772,10.5861656 1.98522827,10.9202211 2.14421901,11.4479628 Z M19.0162404,8.981891 C19.5798863,8.98043615 20.0449196,9.40636694 20.1056258,9.95416232 L20.1123342,10.073301 L20.1123342,10.0943947 C20.1123342,10.6587697 19.6856258,11.1231031 19.1377332,11.1825058 L19.0185842,11.188926 C18.4146779,11.188926 17.9255373,10.6990822 17.9248304,10.095176 L17.9248304,10.0779885 C17.9233756,9.51434265 18.3493064,9.04869681 18.8971018,8.98847757 L19.0162404,8.981891 Z M1.1736992,7.35320098 L1.29202168,7.36861348 C1.84684459,7.47069681 2.22553973,7.97430792 2.18457709,8.52437829 L2.1692873,8.64283223 C2.07986422,9.12888992 1.68089973,9.48048016 1.21326773,9.53169488 L1.09506855,9.53814473 C1.02952168,9.53814473 0.962334176,9.53189473 0.895146676,9.51939473 C0.340907093,9.4173114 -0.0383616575,8.91370029 0.00309357402,8.36362991 L0.0185060509,8.24517598 C0.120589384,7.69100931 0.624200495,7.31174542 1.1736992,7.35320098 Z M19.3739784,6.30606209 L19.4232717,6.41470723 C19.6282404,6.9404364 19.3995592,7.52741556 18.9101889,7.78182991 L18.8013967,7.83111348 C18.7144175,7.86548848 18.6257022,7.88736348 18.5371027,7.89812737 L18.4045217,7.90611348 C17.9670217,7.90611348 17.5537404,7.64205098 17.3849904,7.21001973 C17.1800946,6.68429056 17.4087126,6.0973114 17.8980742,5.84289704 L18.0068654,5.79361348 C18.5318654,5.58871765 19.1194765,5.8173357 19.3739784,6.30606209 Z M2.75317991,4.35538376 L2.86545918,4.41626973 C3.34207748,4.71080098 3.51354192,5.3131806 3.28102154,5.80931934 L3.22014668,5.92173848 C3.0361189,6.2189607 2.73295532,6.39704712 2.41051876,6.43295247 L2.28889668,6.43970723 C2.09280293,6.43970723 1.89350605,6.38736348 1.7145998,6.27642598 C1.23725605,5.98116928 1.06648078,5.37873784 1.29904077,4.88322092 L1.3599123,4.77095723 C1.655169,4.29361348 2.25760044,4.12277085 2.75317991,4.35538376 Z M17.3644065,3.16626631 L17.4560842,3.25533223 C17.8347672,3.66883669 17.8348708,4.29520787 17.4764115,4.70909726 L17.3873342,4.80064473 C17.212204,4.96080098 16.9996389,5.05368292 16.7808346,5.08019479 L16.6490529,5.08814473 C16.3529592,5.08814473 16.0576467,4.96861348 15.8420217,4.73267598 C15.4633386,4.31917152 15.4625614,3.69280034 15.8209245,3.27891095 L15.9099904,3.18736348 C16.3242203,2.80868044 16.9500371,2.80790318 17.3644065,3.16626631 Z M5.31294594,2.13159037 L5.3958498,2.22876973 C5.73543127,2.67564473 5.67817801,3.29901048 5.28295072,3.67789709 L5.18577168,3.76080098 C5.02764668,3.88080098 4.84752168,3.95130098 4.66379668,3.97470098 L4.52561543,3.98345723 C4.19506855,3.98345723 3.86858418,3.83423848 3.65295918,3.55064473 C3.31417569,3.10376973 3.37148596,2.47973035 3.76671732,2.10074751 L3.86389668,2.01783223 C4.31069913,1.67904875 4.9340597,1.73635902 5.31294594,2.13159037 Z M14.3731281,0.968990794 L14.4826467,1.01626973 C14.9879592,1.26710306 15.2135633,1.85549195 15.0228944,2.37301232 L14.9756154,2.48267598 C14.8062404,2.82434265 14.4812481,3.03823154 14.1284849,3.08154429 L13.9951467,3.08970723 C13.8318654,3.08970723 13.6662404,3.05298848 13.5099904,2.97564473 C13.0046779,2.7248114 12.7790738,2.13574195 12.9696792,1.61876603 L13.0169436,1.50923848 C13.2677769,1.00392598 13.8562338,0.778321813 14.3731281,0.968990794 Z M8.50707607,0.990221581 L8.54592793,1.10298848 C8.71155293,1.68423848 8.37561543,2.28892598 7.79436543,2.45533223 C7.72795918,2.47460306 7.66077168,2.48692945 7.59383881,2.49300584 L7.4936623,2.49751973 C7.0177248,2.49751973 6.57952168,2.18423848 6.44280293,1.70376973 C6.28749043,1.1619989 6.5704557,0.598450285 7.08075376,0.391059081 L7.19361347,0.35220723 C7.73613626,0.19689473 8.29968487,0.479860007 8.50707607,0.990221581 Z M10.7790064,0.000168340758 L10.8982717,0.00455097965 C11.4596571,0.0548634796 11.8837064,0.520995424 11.89386,1.07201533 L11.8895998,1.19126973 C11.8417203,1.71939473 11.4273868,2.12559291 10.9199481,2.18092671 L10.8013186,2.18736348 C10.7685842,2.18736348 10.7357717,2.18580098 10.7020998,2.18345723 C10.1407144,2.13241556 9.71666508,1.66623501 9.70651151,1.11521186 L9.71077168,0.99595723 C9.76101126,0.434498896 10.227887,0.00983222965 10.7790064,0.000168340758 Z"></path>
    </clipPath>
    <clipPath id="i4">
      <path d="M21.609375,0 L21.609375,10.3976563 L0,10.3976563 L0,0 L21.609375,0 Z"></path>
    </clipPath>
    <clipPath id="i5">
      <path d="M10.859375,0 L10.859375,10.3976563 L0,10.3976563 L0,0 L10.859375,0 Z"></path>
    </clipPath>
    <clipPath id="i6">
      <path d="M19.6335937,0 L19.6335937,8.12265625 L0,8.12265625 L0,0 L19.6335937,0 Z"></path>
    </clipPath>
    <clipPath id="i7">
      <path d="M9.871875,0 L9.871875,8.12265625 L0,8.12265625 L0,0 L9.871875,0 Z"></path>
    </clipPath>
    <clipPath id="i8">
      <path d="M2.59453125,0 C4.02745129,0 5.1890625,1.62541622 5.1890625,3.63046875 C5.1890625,5.63552128 4.02745129,7.2609375 2.59453125,7.2609375 C1.16161121,7.2609375 0,5.63552128 0,3.63046875 C0,1.62541622 1.16161121,0 2.59453125,0 Z"></path>
    </clipPath>
    <clipPath id="i9">
      <path d="M0.113125,0 C1.54617187,0 2.70773437,1.62539062 2.70773437,3.63046875 C2.70773437,5.63554687 1.54609375,7.26101562 0.113125,7.26101562 C0.07515625,7.26101562 0.0375,7.25929687 0,7.25703125 L0,0.003984375 C0.037578125,0.00171875 0.075234375,0 0.113125,0 Z"></path>
    </clipPath>
    <clipPath id="i10">
      <path d="M1.36507812,0 C2.11898996,0 2.73015625,0.611166294 2.73015625,1.36507812 C2.73015625,2.11898996 2.11898996,2.73015625 1.36507812,2.73015625 C0.611166294,2.73015625 0,2.11898996 0,1.36507812 C0,0.611166294 0.611166294,0 1.36507812,0 Z"></path>
    </clipPath>
    <clipPath id="i11">
      <path d="M10.7632813,0 L10.7632813,10.3976563 L0,10.3976563 L0,0 L10.7632813,0 Z"></path>
    </clipPath>
    <clipPath id="i12">
      <path d="M9.77578125,0 L9.77578125,8.12265625 L0,8.12265625 L0,0 L9.77578125,0 Z"></path>
    </clipPath>
    <clipPath id="i13">
      <path d="M0.016953125,0 C1.44992188,0 2.6115625,1.62546875 2.6115625,3.630625 C2.6115625,5.63570313 1.44992188,7.26117187 0.016953125,7.26117187 C0.01125,7.26117187 0.005703125,7.260625 0,7.26054688 L0,0.000625 Z"></path>
    </clipPath>
    <clipPath id="i14">
      <path d="M12.0873438,0 L15.8465625,2.58765625 L13.2313281,6.38703125 L11.815625,5.4125 L12.7239062,4.0928125 C6.51570312,4.9490625 1.71875,10.28875 1.71875,16.7285938 L0,16.7285938 C0,9.409375 5.460625,3.3425 12.5216406,2.38554688 L11.1127344,1.41578125 L12.0873438,0 Z"></path>
    </clipPath>
    <clipPath id="i15">
      <path d="M16.3129687,0 C16.3129687,7.47101562 10.6235938,13.6378906 3.34992187,14.3964063 L4.5859375,15.4528125 L3.46914062,16.759375 L0,13.7942187 L2.99671875,10.2879688 L4.30335938,11.4046875 L3.21132813,12.6823437 C9.60164063,11.995 14.5942187,6.56992187 14.5942187,0 Z"></path>
    </clipPath>
  </defs>
  <g clip-path="url(#i0)">
    <g clip-path="url(#i1)">
      <polygon points="0,0 40,0 40,40 0,40 0,0" stroke="none" fill="#00A3FF"></polygon>
    </g>
    <g transform="translate(5.524687499999999 4.692265624999997)">
      <g clip-path="url(#i2)">
        <polygon points="0,0 34.1523438,0 34.1523438,34.9596875 0,34.9596875 0,0" stroke="none" fill="#0076FF"></polygon>
      </g>
    </g>
    <g transform="translate(10.018915824129289 9.910292770353065)">
      <g clip-path="url(#i3)">
        <polygon points="-1.11022302e-16,1.11022302e-16 20.1123342,1.11022302e-16 20.1123342,20.1881447 -1.11022302e-16,20.1881447 -1.11022302e-16,1.11022302e-16" stroke="none" fill="#FFE398"></polygon>
      </g>
    </g>
    <g transform="translate(10.286718749999999 15.893750000000002)">
      <g clip-path="url(#i4)">
        <polygon points="0,0 21.609375,0 21.609375,10.3976563 0,10.3976563 0,0" stroke="none" fill="#03D865"></polygon>
      </g>
    </g>
    <g transform="translate(21.0359375 15.893750000000002)">
      <g clip-path="url(#i5)">
        <polygon points="0,0 10.859375,0 10.859375,10.3976563 0,10.3976563 0,0" stroke="none" fill="#00BD5A"></polygon>
      </g>
    </g>
    <g transform="translate(11.274218749999998 17.03125)">
      <g clip-path="url(#i6)">
        <polygon points="0,0 19.6335937,0 19.6335937,8.12265625 0,8.12265625 0,0" stroke="none" fill="#D3F7BC"></polygon>
      </g>
    </g>
    <g transform="translate(21.035937499999996 17.03125)">
      <g clip-path="url(#i7)">
        <polygon points="0,0 9.871875,0 9.871875,8.12265625 0,8.12265625 0,0" stroke="none" fill="#C8F5AA"></polygon>
      </g>
    </g>
    <g transform="translate(18.5546875 17.4625)">
      <g clip-path="url(#i8)">
        <polygon points="0,0 5.1890625,0 5.1890625,7.2609375 0,7.2609375 0,0" stroke="none" fill="#00CC71"></polygon>
      </g>
    </g>
    <g transform="translate(21.036015625 17.462109375)">
      <g clip-path="url(#i9)">
        <polygon points="0,0 2.70773437,0 2.70773437,7.26101562 0,7.26101562 0,0" stroke="none" fill="#00BD5A"></polygon>
      </g>
    </g>
    <g transform="translate(14.062265625000009 19.72789062499998)">
      <g clip-path="url(#i10)">
        <polygon points="0,0 2.73015625,0 2.73015625,2.73015625 0,2.73015625 0,0" stroke="none" fill="#009953"></polygon>
      </g>
      <g transform="translate(11.46328125000002 0.0)">
        <g clip-path="url(#i10)">
          <polygon points="0,0 2.73015625,0 2.73015625,2.73015625 0,2.73015625 0,0" stroke="none" fill="#009953"></polygon>
        </g>
      </g>
    </g>
    <g transform="translate(8.190625 13.718749999999998)">
      <g clip-path="url(#i4)">
        <polygon points="0,0 21.609375,0 21.609375,10.3976563 0,10.3976563 0,0" stroke="none" fill="#03D865"></polygon>
      </g>
    </g>
    <g transform="translate(19.03671875 13.718749999999998)">
      <g clip-path="url(#i11)">
        <polygon points="0,0 10.7632813,0 10.7632813,10.3976563 0,10.3976563 0,0" stroke="none" fill="#00BD5A"></polygon>
      </g>
    </g>
    <g transform="translate(9.178125 14.85625)">
      <g clip-path="url(#i6)">
        <polygon points="0,0 19.6335937,0 19.6335937,8.12265625 0,8.12265625 0,0" stroke="none" fill="#D3F7BC"></polygon>
      </g>
    </g>
    <g transform="translate(19.03671875 14.85625)">
      <g clip-path="url(#i12)">
        <polygon points="0,0 9.77578125,0 9.77578125,8.12265625 0,8.12265625 0,0" stroke="none" fill="#C8F5AA"></polygon>
      </g>
    </g>
    <g transform="translate(16.45859375 15.28671875)">
      <g clip-path="url(#i8)">
        <polygon points="0,0 5.1890625,0 5.1890625,7.2609375 0,7.2609375 0,0" stroke="none" fill="#00CC71"></polygon>
      </g>
    </g>
    <g transform="translate(19.036484375 15.286953124999998)">
      <g clip-path="url(#i13)">
        <polygon points="0,0 2.6115625,0 2.6115625,7.26117187 0,7.26117187 0,0" stroke="none" fill="#00BD5A"></polygon>
      </g>
    </g>
    <g transform="translate(11.966953125 17.552109375)">
      <g clip-path="url(#i10)">
        <polygon points="0,0 2.73015625,0 2.73015625,2.73015625 0,2.73015625 0,0" stroke="none" fill="#04D965"></polygon>
      </g>
    </g>
    <g transform="translate(23.429453125 17.552109375)">
      <g clip-path="url(#i10)">
        <polygon points="0,0 2.73015625,0 2.73015625,2.73015625 0,2.73015625 0,0" stroke="none" fill="#00BD5A"></polygon>
      </g>
    </g>
    <g transform="translate(5.5246875000000255 3.2764843749999955)">
      <g clip-path="url(#i14)">
        <polygon points="0,0 15.8465625,0 15.8465625,16.7285938 0,16.7285938 0,0" stroke="none" fill="#FFFFFF"></polygon>
      </g>
      <g transform="translate(12.637656249999962 16.72859375000002)">
        <g clip-path="url(#i15)">
          <polygon points="0,0 16.3129687,0 16.3129687,16.759375 0,16.759375 0,0" stroke="none" fill="#FFFFFF"></polygon>
        </g>
      </g>
    </g>
  </g>
</svg>