<?xml version="1.0" encoding="UTF-8"?><svg version="1.1" width="40px" height="40px" viewBox="0 0 40.0 40.0" xmlns="http://www.w3.org/2000/svg" xmlns:xlink="http://www.w3.org/1999/xlink">
  <defs>
    <clipPath id="i0">
      <path d="M40,0 L40,40 L0,40 L0,0 L40,0 Z"></path>
    </clipPath>
    <clipPath id="i1">
      <path d="M20,0 C31.045695,0 40,8.954305 40,20 C40,31.045695 31.045695,40 20,40 C8.954305,40 0,31.045695 0,20 C0,8.954305 8.954305,0 20,0 Z"></path>
    </clipPath>
    <clipPath id="i2">
      <path d="M16.2692187,0 L34.3248437,18.055625 C33.4332031,28.2671094 24.8692969,36.2795313 14.4294531,36.293125 L14.449375,35.2880469 L6.26375,27.1024219 L7.3378125,25.9830469 L1.82554688,20.4707813 L3.88648437,20.1098438 L3.88648437,18.2691406 L0,14.3853125 L2.67882813,14.013125 L3.05101562,11.3342969 L7.88492187,16.1707813 L8.05453125,15.3153125 L8.05335937,14.3696875 L15.1260156,21.4423437 L15.1642187,20.2452344 L7.18125,12.2622656 L15.6046875,10.3238281 L16.2692187,0 Z"></path>
    </clipPath>
    <clipPath id="i3">
      <path d="M7.258125,0 C8.908125,0 10.245625,1.33757813 10.245625,2.9875 C10.245625,3.1121875 10.2371094,3.23476562 10.2222656,3.35546875 C11.0203125,3.45195313 11.6667188,4.03914062 11.85125,4.80664062 C13.3404688,4.85132813 14.5342969,6.071875 14.5342969,7.57203125 C14.5342969,9.10046875 13.2952344,10.3395313 11.7667969,10.3395313 L2.7675,10.3395313 C1.2390625,10.3395313 0,9.10046875 0,7.57203125 C0,6.079375 1.181875,4.86335938 2.66085938,4.80726563 C2.84546875,4.03820313 3.49382813,3.45007813 4.29390625,3.355 C4.27914063,3.23445313 4.270625,3.11203125 4.270625,2.9875 C4.270625,1.3375 5.608125,0 7.258125,0 Z"></path>
    </clipPath>
    <clipPath id="i4">
      <path d="M0,0 C1.65,0 2.9875,1.33757813 2.9875,2.9875 C2.9875,3.1121875 2.97898438,3.23476562 2.96414063,3.35546875 C3.7621875,3.45195313 4.40859375,4.03914062 4.593125,4.80664062 C6.08242188,4.85132813 7.27617188,6.07179688 7.27617188,7.57195313 C7.27617188,9.10039062 6.03710938,10.3394531 4.50867188,10.3394531 L0,10.3394531 Z"></path>
    </clipPath>
    <clipPath id="i5">
      <path d="M8.9415625,0 L8.9415625,5.68492187 C7.5040625,6.013125 6.0078125,6.18703125 4.47078125,6.18703125 C2.93375,6.18703125 1.4375,6.01320312 0,5.68492187 L0,0 L8.9415625,0 Z"></path>
    </clipPath>
    <clipPath id="i6">
      <path d="M4.47078125,0 L4.47078125,5.68492187 C3.03328125,6.013125 1.53695313,6.18703125 0,6.18703125 L0,0 L4.47078125,0 Z"></path>
    </clipPath>
    <clipPath id="i7">
      <path d="M1.40851562,0 C2.18641732,0 2.81703125,0.630613925 2.81703125,1.40851562 C2.81703125,2.18641732 2.18641732,2.81703125 1.40851562,2.81703125 C0.630613925,2.81703125 0,2.18641732 0,1.40851562 C0,0.630613925 0.630613925,0 1.40851562,0 Z"></path>
    </clipPath>
    <clipPath id="i8">
      <path d="M14.5342969,4.1234375 C14.5342969,8.13703125 11.2807031,11.390625 7.26726562,11.390625 C3.25359375,11.390625 0,8.13703125 0,4.1234375 C0,0.267314645 6.70846012,0.0146245434 7.23461385,0.000735927829 L7.29991634,0.000735927829 C7.82605311,0.0146245434 14.5342969,0.267314645 14.5342969,4.1234375 Z"></path>
    </clipPath>
    <clipPath id="i9">
      <path d="M14.5342969,0 L14.5342969,5.81195313 L0,5.81195313 L0,0 L14.5342969,0 Z"></path>
    </clipPath>
    <clipPath id="i10">
      <path d="M7.2671875,0 L7.2671875,5.81195313 L0,5.81195313 L0,0 L7.2671875,0 Z"></path>
    </clipPath>
    <clipPath id="i11">
      <path d="M7.26703125,4.1234375 C7.26703125,8.13703125 4.0134375,11.390625 0,11.390625 L0,0 L0.0326507197,0.000735927829 C0.558787486,0.0146245434 7.26703125,0.267314645 7.26703125,4.1234375 Z"></path>
    </clipPath>
    <clipPath id="i12">
      <path d="M2.26140625,0 L3.47265625,6.57578125 L0,6.57578125 L1.21125,0 L2.26140625,0 Z"></path>
    </clipPath>
    <clipPath id="i13">
      <path d="M0.524921875,0 L1.73617188,6.57578125 L0,6.57578125 L0,0 L0.524921875,0 Z"></path>
    </clipPath>
    <clipPath id="i14">
      <path d="M0.787265625,0 C1.22206042,0 1.57453125,0.352470826 1.57453125,0.787265625 C1.57453125,1.22206042 1.22206042,1.57453125 0.787265625,1.57453125 C0.352470826,1.57453125 0,1.22206042 0,0.787265625 C0,0.352470826 0.352470826,0 0.787265625,0 Z"></path>
    </clipPath>
    <clipPath id="i15">
      <path d="M3.79609375,0 L4.70273438,0.742578125 C4.12273438,1.45070313 3.265625,1.856875 2.35132813,1.856875 C1.43703125,1.856875 0.58,1.45070313 0,0.742578125 L0.9065625,0 C1.263125,0.4353125 1.7896875,0.685 2.35132813,0.685 C2.91296875,0.685 3.43960938,0.4353125 3.79609375,0 Z"></path>
    </clipPath>
    <clipPath id="i16">
      <path d="M1.44476562,0 L2.35140625,0.742578125 C1.77132813,1.45070312 0.914296875,1.856875 0,1.856875 L0,0.685 C0.561640625,0.684921875 1.08820312,0.4353125 1.44476562,0 Z"></path>
    </clipPath>
    <clipPath id="i17">
      <path d="M5.47320313,0 L6.14765625,4.20257812 L0,4.20257812 L0.67453125,0 L5.47320313,0 Z"></path>
    </clipPath>
    <clipPath id="i18">
      <path d="M3.3721875,0 L3.3721875,4.64367187 L0,4.64367187 L0,2.6653125 L3.3721875,0 Z"></path>
    </clipPath>
    <clipPath id="i19">
      <path d="M0,0 L3.3721875,2.6653125 L3.3721875,4.64367187 L0,4.64367187 L0,0 Z"></path>
    </clipPath>
    <clipPath id="i20">
      <path d="M2.399375,0 L3.07382812,4.20257812 L0,4.20257812 L0,0 L2.399375,0 Z"></path>
    </clipPath>
    <clipPath id="i21">
      <path d="M4.04664063,0 C4.04664063,0 8.09320313,1.68609375 8.09320313,6.70023437 L8.09320313,13.5785937 L0,13.5785937 L0,6.70023438 C0,1.68609375 4.04664063,0 4.04664063,0 Z"></path>
    </clipPath>
    <clipPath id="i22">
      <path d="M8.09320313,0 L8.09320313,1.36703125 L0,1.36703125 L0,0 L8.09320313,0 Z"></path>
    </clipPath>
    <clipPath id="i23">
      <path d="M0,0 C0,0 4.04664063,1.68609375 4.04664063,6.70023437 L4.04664063,13.5785937 L0,13.5785937 Z"></path>
    </clipPath>
    <clipPath id="i24">
      <path d="M4.04664063,0 L4.04664063,1.36703125 L0,1.36703125 L0,0 L4.04664063,0 Z"></path>
    </clipPath>
    <clipPath id="i25">
      <path d="M2.60890625,0 C4.04976539,0 5.2178125,1.16804711 5.2178125,2.60890625 C5.2178125,4.04976539 4.04976539,5.2178125 2.60890625,5.2178125 C1.16804711,5.2178125 0,4.04976539 0,2.60890625 C0,1.16804711 1.16804711,0 2.60890625,0 Z"></path>
    </clipPath>
    <clipPath id="i26">
      <path d="M0,0 C1.44085937,0 2.60890625,1.16804688 2.60890625,2.60898437 C2.60890625,4.04984375 1.44085937,5.21789062 0,5.21789062 L0,0 Z"></path>
    </clipPath>
    <clipPath id="i27">
      <path d="M2.814375,0 L2.814375,5.35765625 L2.30664063,5.35765625 C2.30664063,4.08375 1.27390625,3.05101562 0,3.05101562 L0,2.30664063 C1.27390625,2.30664063 2.30664063,1.27390625 2.30664063,0 L2.814375,0 Z"></path>
    </clipPath>
    <clipPath id="i28">
      <path d="M0.3721875,0 C0.3721875,1.27390625 1.40492188,2.30664063 2.67882812,2.30664063 L2.67882812,3.05101562 C1.40492187,3.05101562 0.3721875,4.08375 0.3721875,5.35765625 L0,5.35765625 L0,0 Z"></path>
    </clipPath>
    <clipPath id="i29">
      <path d="M1.4071875,0 L1.4071875,2.67890625 L1.15335938,2.67890625 C1.15335938,2.041875 0.636953125,1.52554688 0,1.52554688 L0,1.15335938 C0.63703125,1.15335938 1.15335938,0.636953125 1.15335938,0 L1.4071875,0 Z"></path>
    </clipPath>
    <clipPath id="i30">
      <path d="M0.18609375,0 C0.18609375,0.636953125 0.7025,1.15335938 1.33945313,1.15328125 L1.33945313,1.52546875 C0.702421875,1.52546875 0.18609375,2.041875 0.18609375,2.67882813 L0,2.67882813 L0,0 Z"></path>
    </clipPath>
    <clipPath id="i31">
      <path d="M2.16359375,0 L2.16359375,4.11875 L1.77328125,4.11875 C1.77328125,3.139375 0.979375,2.34546875 0,2.34546875 L0,1.77328125 C0.979375,1.77328125 1.77328125,0.979375 1.77328125,0 L2.16359375,0 Z"></path>
    </clipPath>
    <clipPath id="i32">
      <path d="M0.28609375,0 C0.28609375,0.979296875 1.08,1.77320313 2.059375,1.77328125 L2.059375,2.34546875 C1.08,2.34546875 0.28609375,3.139375 0.28609375,4.11875 L0,4.11875 L0,0 Z"></path>
    </clipPath>
    <clipPath id="i33">
      <path d="M1.33304687,0 L1.33304687,2.53789062 L1.09257813,2.53789062 C1.09257813,1.93445312 0.6034375,1.44523437 0,1.44523437 L0,1.09265625 C0.603359375,1.09265625 1.09257813,0.6034375 1.09257813,0 L1.33304687,0 Z"></path>
    </clipPath>
    <clipPath id="i34">
      <path d="M0.176328125,0 C0.176328125,0.6034375 0.66546875,1.09265625 1.26898438,1.09257813 L1.26898438,1.44515625 C0.665546875,1.44515625 0.176328125,1.934375 0.176328125,2.5378125 L0,2.5378125 L0,0 Z"></path>
    </clipPath>
    <clipPath id="i35">
      <path d="M2.04578125,0 L2.04578125,3.89453125 L1.67671875,3.89453125 C1.67671875,2.96851562 0.926015625,2.2178125 0,2.2178125 L0,1.67671875 C0.926015625,1.67671875 1.67671875,0.926015625 1.67671875,0 L2.04578125,0 Z"></path>
    </clipPath>
    <clipPath id="i36">
      <path d="M0.270546875,0 C0.270546875,0.926015625 1.02125,1.67671875 1.94726563,1.67664063 L1.94726563,2.21773438 C1.02125,2.21773438 0.270546875,2.9684375 0.270546875,3.89445312 L0,3.89445312 L0,0 Z"></path>
    </clipPath>
  </defs>
  <g clip-path="url(#i0)">
    <g clip-path="url(#i1)">
      <polygon points="0,0 40,0 40,40 0,40 0,0" stroke="none" fill="#0431E8"></polygon>
      <polygon points="0,0 40,0 40,40 0,40 0,0" stroke="none" fill="rgba(255, 255, 255, 0.154969)"></polygon>
    </g>
    <g transform="translate(5.597031250000011 3.7064843750000023)">
      <g clip-path="url(#i2)">
        <polygon points="0,0 34.3248437,0 34.3248437,36.293125 0,36.293125 0,0" stroke="none" fill="#000000" opacity="74.7465588%" style="mix-blend-mode:soft-light"></polygon>
      </g>
    </g>
    <g transform="translate(5.597109375000002 2.391015624999966)">
      <g transform="translate(7.1314062500000555 15.38406250000003)">
        <g clip-path="url(#i3)">
          <polygon points="0,0 14.5342969,0 14.5342969,10.3395313 0,10.3395313 0,0" stroke="none" fill="#D6E9F8"></polygon>
        </g>
        <g transform="translate(7.25812499999995 0.0)">
          <g clip-path="url(#i4)">
            <polygon points="0,0 7.27617188,0 7.27617188,10.3394531 0,10.3394531 0,0" stroke="none" fill="#B2D7F3"></polygon>
          </g>
        </g>
      </g>
      <g transform="translate(5.722890625000012 22.95609374999998)">
        <g transform="translate(4.204921874999998 8.465859375)">
          <g clip-path="url(#i5)">
            <polygon points="0,0 8.9415625,0 8.9415625,6.18703125 0,6.18703125 0,0" stroke="none" fill="#FFA390"></polygon>
          </g>
        </g>
        <g transform="translate(8.675624999999997 8.465859375)">
          <g clip-path="url(#i6)">
            <polygon points="0,0 4.47078125,0 4.47078125,6.18703125 0,6.18703125 0,0" stroke="none" fill="#F99183"></polygon>
          </g>
        </g>
        <g transform="translate(0.0 2.933281249999993)">
          <g clip-path="url(#i7)">
            <polygon points="0,0 2.81703125,0 2.81703125,2.81703125 0,2.81703125 0,0" stroke="none" fill="#FFA390"></polygon>
          </g>
        </g>
        <g transform="translate(14.534296875 2.933281249999993)">
          <g clip-path="url(#i7)">
            <polygon points="0,0 2.81703125,0 2.81703125,2.81703125 0,2.81703125 0,0" stroke="none" fill="#F99183"></polygon>
          </g>
        </g>
        <g transform="translate(1.4085156249999509 1.688515625000008)">
          <g clip-path="url(#i8)">
            <polygon points="0,0 14.5342969,0 14.5342969,11.390625 0,11.390625 0,0" stroke="none" fill="#FFBDAC"></polygon>
          </g>
        </g>
        <g transform="translate(1.4085156249999509 0.0)">
          <g clip-path="url(#i9)">
            <polygon points="0,0 14.5342969,0 14.5342969,5.81195313 0,5.81195313 0,0" stroke="none" fill="#FFBDAC"></polygon>
          </g>
        </g>
        <g transform="translate(8.675624999999968 0.0)">
          <g clip-path="url(#i10)">
            <polygon points="0,0 7.2671875,0 7.2671875,5.81195313 0,5.81195313 0,0" stroke="none" fill="#FFA390"></polygon>
          </g>
          <g transform="translate(0.00015625000003183231 1.688515625000008)">
            <g clip-path="url(#i11)">
              <polygon points="0,0 7.26703125,0 7.26703125,11.390625 0,11.390625 0,0" stroke="none" fill="#FFA390"></polygon>
            </g>
          </g>
        </g>
        <g transform="translate(6.939296874999968 1.6885156250000084)">
          <g clip-path="url(#i12)">
            <polygon points="0,0 3.47265625,0 3.47265625,6.57578125 0,6.57578125 0,0" stroke="none" fill="#FFA390"></polygon>
          </g>
          <g transform="translate(1.7364843750000323 0.0)">
            <g clip-path="url(#i13)">
              <polygon points="0,0 1.73617188,0 1.73617188,6.57578125 0,6.57578125 0,0" stroke="none" fill="#F99183"></polygon>
            </g>
          </g>
        </g>
        <g transform="translate(3.32648437499995 2.767265624999993)">
          <g clip-path="url(#i14)">
            <polygon points="0,0 1.57453125,0 1.57453125,1.57453125 0,1.57453125 0,0" stroke="none" fill="#00347B"></polygon>
          </g>
        </g>
        <g transform="translate(12.35914062500001 2.767265624999993)">
          <g clip-path="url(#i14)">
            <polygon points="0,0 1.57453125,0 1.57453125,1.57453125 0,1.57453125 0,0" stroke="none" fill="#002658"></polygon>
          </g>
        </g>
        <g transform="translate(6.324375000000032 9.367578124999994)">
          <g clip-path="url(#i15)">
            <polygon points="0,0 4.70273438,0 4.70273438,1.856875 0,1.856875 0,0" stroke="none" fill="#FF6379"></polygon>
          </g>
        </g>
        <g transform="translate(8.67578125 9.367578124999994)">
          <g clip-path="url(#i16)">
            <polygon points="0,0 2.35140625,0 2.35140625,1.856875 0,1.856875 0,0" stroke="none" fill="#FF415B"></polygon>
          </g>
        </g>
      </g>
      <g transform="translate(7.182109375000002 0.0)">
        <g transform="translate(4.142578125000007 12.00687500000001)">
          <g clip-path="url(#i17)">
            <polygon points="0,0 6.14765625,0 6.14765625,4.20257812 0,4.20257812 0,0" stroke="none" fill="#0051BE"></polygon>
          </g>
        </g>
        <g transform="translate(0.0 8.934921875000015)">
          <g clip-path="url(#i18)">
            <polygon points="0,0 3.3721875,0 3.3721875,4.64367187 0,4.64367187 0,0" stroke="none" fill="#FF6379"></polygon>
          </g>
        </g>
        <g transform="translate(11.06070312499998 8.934921875000015)">
          <g clip-path="url(#i19)">
            <polygon points="0,0 3.3721875,0 3.3721875,4.64367187 0,4.64367187 0,0" stroke="none" fill="#FF415B"></polygon>
          </g>
        </g>
        <g transform="translate(7.216406249999991 12.00687500000001)">
          <g clip-path="url(#i20)">
            <polygon points="0,0 3.07382812,0 3.07382812,4.20257812 0,4.20257812 0,0" stroke="none" fill="#00419C"></polygon>
          </g>
        </g>
        <g transform="translate(3.1697656249999895 0.0)">
          <g clip-path="url(#i21)">
            <polygon points="0,0 8.09320313,0 8.09320313,13.5785937 0,13.5785937 0,0" stroke="none" fill="#7AB6FF"></polygon>
          </g>
        </g>
        <g transform="translate(3.1698437500000054 13.57859374999997)">
          <g clip-path="url(#i22)">
            <polygon points="0,0 8.09320313,0 8.09320313,1.36703125 0,1.36703125 0,0" stroke="none" fill="#00347B"></polygon>
          </g>
        </g>
        <g transform="translate(7.216406249999991 0.0)">
          <g clip-path="url(#i23)">
            <polygon points="0,0 4.04664063,0 4.04664063,13.5785937 0,13.5785937 0,0" stroke="none" fill="#4E9EFF"></polygon>
          </g>
        </g>
        <g transform="translate(7.216406249999991 13.57859374999997)">
          <g clip-path="url(#i24)">
            <polygon points="0,0 4.04664063,0 4.04664063,1.36703125 0,1.36703125 0,0" stroke="none" fill="#002658"></polygon>
          </g>
        </g>
        <g transform="translate(4.607500000000009 3.9471093750000112)">
          <g clip-path="url(#i25)">
            <polygon points="0,0 5.2178125,0 5.2178125,5.2178125 0,5.2178125 0,0" stroke="none" fill="#0051BE"></polygon>
          </g>
        </g>
        <g transform="translate(7.21640624999999 3.9470312499999944)">
          <g clip-path="url(#i26)">
            <polygon points="0,0 2.60890625,0 2.60890625,5.21789062 0,5.21789062 0,0" stroke="none" fill="#00419C"></polygon>
          </g>
        </g>
      </g>
      <g transform="translate(0.0 12.64984374999997)">
        <g clip-path="url(#i27)">
          <polygon points="0,0 2.814375,0 2.814375,5.35765625 0,5.35765625 0,0" stroke="none" fill="#FFD944"></polygon>
        </g>
        <g transform="translate(2.678828124999995 0.0)">
          <g clip-path="url(#i28)">
            <polygon points="0,0 2.67882812,0 2.67882812,5.35765625 0,5.35765625 0,0" stroke="none" fill="#FFBD31"></polygon>
          </g>
        </g>
      </g>
      <g transform="translate(6.527968750000014 15.685468750000041)">
        <g clip-path="url(#i29)">
          <polygon points="0,0 1.4071875,0 1.4071875,2.67890625 0,2.67890625 0,0" stroke="none" fill="#FFD944"></polygon>
        </g>
        <g transform="translate(1.3394531249999768 0.0)">
          <g clip-path="url(#i30)">
            <polygon points="0,0 1.33945313,0 1.33945313,2.67882813 0,2.67882813 0,0" stroke="none" fill="#FFBD31"></polygon>
          </g>
        </g>
      </g>
      <g transform="translate(1.827109375000013 19.43921875000001)">
        <g clip-path="url(#i31)">
          <polygon points="0,0 2.16359375,0 2.16359375,4.11875 0,4.11875 0,0" stroke="none" fill="#FFD944"></polygon>
        </g>
        <g transform="translate(2.059375 0.0)">
          <g clip-path="url(#i32)">
            <polygon points="0,0 2.059375,0 2.059375,4.11875 0,4.11875 0,0" stroke="none" fill="#FFBD31"></polygon>
          </g>
        </g>
      </g>
      <g transform="translate(15.30937500000005 18.96070312500001)">
        <g clip-path="url(#i33)">
          <polygon points="0,0 1.33304687,0 1.33304687,2.53789062 0,2.53789062 0,0" stroke="none" fill="#FFD944"></polygon>
        </g>
        <g transform="translate(1.268828125000027 0.0)">
          <g clip-path="url(#i34)">
            <polygon points="0,0 1.26898438,0 1.26898438,2.5378125 0,2.5378125 0,0" stroke="none" fill="#FFBD31"></polygon>
          </g>
        </g>
      </g>
      <g transform="translate(21.67000000000002 15.661718750000022)">
        <g clip-path="url(#i35)">
          <polygon points="0,0 2.04578125,0 2.04578125,3.89453125 0,3.89453125 0,0" stroke="none" fill="#FFD944"></polygon>
        </g>
        <g transform="translate(1.947265624999996 0.0)">
          <g clip-path="url(#i36)">
            <polygon points="0,0 1.94726563,0 1.94726563,3.89445312 0,3.89445312 0,0" stroke="none" fill="#FFBD31"></polygon>
          </g>
        </g>
      </g>
    </g>
  </g>
</svg>