<?xml version="1.0" encoding="UTF-8"?><svg version="1.1" width="40px" height="40px" viewBox="0 0 40.0 40.0" xmlns="http://www.w3.org/2000/svg" xmlns:xlink="http://www.w3.org/1999/xlink">
  <defs>
    <clipPath id="i0">
      <path d="M40,0 L40,40 L0,40 L0,0 L40,0 Z"></path>
    </clipPath>
    <clipPath id="i1">
      <path d="M20,0 C31.045695,0 40,8.954305 40,20 C40,31.045695 31.045695,40 20,40 C8.954305,40 0,31.045695 0,20 C0,8.954305 8.954305,0 20,0 Z"></path>
    </clipPath>
    <clipPath id="i2">
      <path d="M10.490625,0 L20.7890625,10.2984375 L23.3778906,7.13359375 L30.3383594,14.0940625 C30.3375781,25.1391406 21.3835937,34.0926563 10.3383594,34.0926563 C10.0713281,34.0926563 9.8059375,34.0858594 9.54140625,34.0754688 L1.8765625,26.410625 L4.95546875,23.2405469 L0,18.2850781 L5.4103125,12.8747656 L9.63625,17.1007031 L9.69328125,15.9592969 L2.11234375,8.37835938 L10.490625,0 Z"></path>
    </clipPath>
    <clipPath id="i3">
      <path d="M5.41039062,7.8125e-05 L7.06757812,1.65734375 L5.19109375,3.53382812 L7.06757812,5.4103125 L5.41039062,7.06757812 L3.53382812,5.19109375 L1.65726562,7.06757812 L7.8125e-05,5.41039062 L1.8765625,3.53382812 L0,1.65726562 L1.65726562,0 L3.53382812,1.8765625 L5.41039062,7.8125e-05 Z"></path>
    </clipPath>
    <clipPath id="i4">
      <path d="M5.41039063,7.8125e-05 L7.06765625,1.65734375 L5.19109375,3.53382813 L7.06765625,5.4103125 L5.41039063,7.06757812 L3.53382812,5.19109375 L1.65734375,7.06765625 L7.8125e-05,5.41039062 L1.87664063,3.53382813 L0,1.65726562 L1.65726563,0 L3.53382812,1.8765625 L5.41039063,7.8125e-05 Z"></path>
    </clipPath>
    <clipPath id="i5">
      <path d="M3.18921875,0 C4.95057563,0 6.3784375,1.42786187 6.3784375,3.18921875 C6.3784375,4.95057563 4.95057563,6.3784375 3.18921875,6.3784375 C1.42786187,6.3784375 0,4.95057563 0,3.18921875 C0,1.42786187 1.42786187,0 3.18921875,0 Z"></path>
    </clipPath>
    <clipPath id="i6">
      <path d="M8.37828125,0 L8.37828125,3.4375 L5.92234375,3.4375 L9.94476563,9.2690625 L9.94476563,27.080625 L6.50726562,27.080625 L6.50726562,10.3396094 L3.4375,5.88914063 L3.4375,8.37835938 L0,8.37835938 L0,0 L8.37828125,0 Z"></path>
    </clipPath>
    <clipPath id="i7">
      <path d="M0,0 L1.6796875,2.43515625 L1.6796875,20.2467187 L0,20.2467187 L0,0 Z"></path>
    </clipPath>
  </defs>
  <g clip-path="url(#i0)">
    <g clip-path="url(#i1)">
      <polygon points="0,0 40,0 40,40 0,40 0,0" stroke="none" fill="#0E0CED"></polygon>
      <polygon points="0,0 40,0 40,40 0,40 0,0" stroke="none" fill="rgba(255, 255, 255, 0.304969)"></polygon>
    </g>
    <g transform="translate(9.661640624999999 5.9073437499999955)">
      <g clip-path="url(#i2)">
        <polygon points="0,0 30.3383594,0 30.3383594,34.0926563 0,34.0926563 0,0" stroke="none" fill="#3636EB"></polygon>
      </g>
    </g>
    <g transform="translate(23.52664062500001 23.741328125)">
      <g clip-path="url(#i3)">
        <polygon points="0,0 7.06757812,0 7.06757812,7.06757812 0,7.06757812 0,0" stroke="none" fill="#DCE1EB"></polygon>
      </g>
    </g>
    <g transform="translate(8.004296874999998 17.124765625)">
      <g clip-path="url(#i4)">
        <polygon points="0,0 7.06765625,0 7.06765625,7.06765625 0,7.06765625 0,0" stroke="none" fill="#F2F6FC"></polygon>
      </g>
    </g>
    <g transform="translate(10.303515625 26.609531249999996)">
      <g clip-path="url(#i5)">
        <polygon points="0,0 6.3784375,0 6.3784375,6.3784375 0,6.3784375 0,0" stroke="none" fill="#19CFFC"></polygon>
      </g>
    </g>
    <g transform="translate(27.459921875 11.961875)">
      <g clip-path="url(#i5)">
        <polygon points="0,0 6.3784375,0 6.3784375,6.3784375 0,6.3784375 0,0" stroke="none" fill="#41B3E5"></polygon>
      </g>
    </g>
    <g transform="translate(11.773984374999998 5.907343750000001)">
      <g clip-path="url(#i6)">
        <polygon points="0,0 9.94476563,0 9.94476563,27.080625 0,27.080625 0,0" stroke="none" fill="#F2F6FC"></polygon>
      </g>
    </g>
    <g transform="translate(20.0390625 12.74125)">
      <g clip-path="url(#i7)">
        <polygon points="0,0 1.6796875,0 1.6796875,20.2467187 0,20.2467187 0,0" stroke="none" fill="#DCE1EB"></polygon>
      </g>
    </g>
  </g>
</svg>