<?xml version="1.0" encoding="UTF-8"?><svg version="1.1" width="40px" height="40px" viewBox="0 0 40.0 40.0" xmlns="http://www.w3.org/2000/svg" xmlns:xlink="http://www.w3.org/1999/xlink">
  <defs>
    <clipPath id="i0">
      <path d="M40,0 L40,40 L0,40 L0,0 L40,0 Z"></path>
    </clipPath>
    <clipPath id="i1">
      <path d="M20,0 C31.045695,0 40,8.954305 40,20 C40,31.045695 31.045695,40 20,40 C8.954305,40 0,31.045695 0,20 C0,8.954305 8.954305,0 20,0 Z"></path>
    </clipPath>
    <clipPath id="i2">
      <path d="M12.9982031,0 L30.9595313,17.9613281 C29.3698438,27.3874219 21.1858594,34.5735938 11.3163281,34.6110156 L6.73328125,30.0279688 L6.80507813,29.975625 L0,23.1705469 L12.5876563,6.22632813 L9.56085938,3.21640625 L12.9982031,0 Z"></path>
    </clipPath>
    <clipPath id="i3">
      <path d="M13.2584375,0 L21.6964844,19.1682031 L0,19.1682031 L8.35554687,0 L13.2584375,0 Z"></path>
    </clipPath>
    <clipPath id="i4">
      <path d="M0,0 L3.03960937,0.00328125 L10.4417969,19.1714844 L0,19.1682031 L0,0 Z"></path>
    </clipPath>
    <clipPath id="i5">
      <path d="M6.25575634,0 C7.24075634,0 8.06950634,0.738125 8.18302196,1.7165625 L10.1584126,18.7425 C10.2819282,19.806875 9.51919384,20.7698437 8.45481884,20.8933594 C8.37880321,20.9021094 8.30341259,20.9064595 8.22872509,20.9064595 C7.25724071,20.9064595 6.41856884,20.178125 6.30388134,19.1896875 L5.08575634,8.690625 L3.86763134,19.1896875 C3.74411571,20.2540625 2.78044384,21.0167969 1.71677196,20.8933594 C0.652396962,20.7698437 -0.110337413,19.806875 0.0131000868,18.7425 L1.98849071,1.7165625 C2.10200634,0.738125 2.93075634,0 3.91575634,0 L6.25575634,0 Z"></path>
    </clipPath>
    <clipPath id="i6">
      <path d="M1.186875,0 C2.17195312,0 3.000625,0.738125 3.11414062,1.7165625 L5.08953125,18.7425 C5.21304687,19.806875 4.4503125,20.7699219 3.38585937,20.8933594 C3.30992187,20.9021094 3.23445312,20.9064062 3.15984375,20.9064062 C2.18835937,20.9064062 1.3496875,20.178125 1.235,19.1896875 L0.016875,8.690625 L0,0 Z"></path>
    </clipPath>
    <clipPath id="i7">
      <path d="M2.35537688,0 C3.65621561,0 4.71075375,1.05453815 4.71075375,2.35537688 C4.71075375,3.65621561 3.65621561,4.71075375 2.35537688,4.71075375 C1.05453815,4.71075375 0,3.65621561 0,2.35537688 C0,1.05453815 1.05453815,0 2.35537688,0 Z"></path>
    </clipPath>
    <clipPath id="i8">
      <path d="M0.016875,0 C1.31703125,0 2.3709375,1.05398437 2.37085937,2.35390625 C2.37085937,3.6540625 1.31695313,4.70796875 0.016875,4.70796875 L0,4.70757813 L0,0.000390625 Z"></path>
    </clipPath>
    <clipPath id="i9">
      <path d="M10.8426073,0 C11.0044042,0 11.4702635,0.0940625 11.8258104,0.449609375 L15.2558885,4.121875 C15.6997948,4.5971875 15.7244042,5.32726562 15.3133885,5.83140625 L11.7102635,10.2517969 C11.4531542,10.5671875 11.0788573,10.7307031 10.7013573,10.7307031 C10.412451,10.7307031 10.1217479,10.6349219 9.88041978,10.4382031 C9.3236229,9.984375 9.2401854,9.16515625 9.69401353,8.60835937 L9.87323228,8.3884375 L5.73252915,8.3884375 L5.9117479,8.60835937 C6.36557603,9.16507813 6.28213853,9.984375 5.72534165,10.4382031 C5.48401353,10.6349219 5.1933104,10.7307031 4.90440415,10.7307031 C4.52690415,10.7307031 4.1526854,10.5671875 3.89557603,10.2517969 L0.292451028,5.83140625 C-0.118408347,5.32726562 -0.0937989722,4.5971875 0.350107278,4.121875 L3.7801854,0.449609375 C4.18948228,0.040390625 4.72870103,0 4.90377915,0 Z M3.85245103,4.18304688 L3.02604478,5.06789063 L4.31401353,6.64804688 L3.85245103,4.18304688 Z M11.8175292,4.2515625 L11.499326,6.39367187 L12.5800292,5.06789062 L11.8175292,4.2515625 Z"></path>
    </clipPath>
    <clipPath id="i10">
      <path d="M3.05648437,0 C3.21820312,0 3.68414062,0.0940625 4.0396875,0.449609375 L7.46976562,4.121875 C7.91367188,4.5971875 7.93828125,5.32726562 7.52742187,5.83140625 L3.92429687,10.2517969 C3.6671875,10.5671875 3.2928125,10.7307031 2.91539063,10.7307031 C2.62648438,10.7307031 2.33578125,10.6349219 2.09445313,10.4382031 C1.53765625,9.984375 1.45421875,9.16515625 1.90804688,8.60835937 L2.08726562,8.3884375 L0,8.3884375 L0,0 Z M4.03140625,4.2515625 L3.71320313,6.39367187 L4.79390625,5.06789062 L4.03140625,4.2515625 Z"></path>
    </clipPath>
  </defs>
  <g clip-path="url(#i0)">
    <g clip-path="url(#i1)">
      <polygon points="0,0 40,0 40,40 0,40 0,0" stroke="none" fill="#00A3FF"></polygon>
    </g>
    <g transform="translate(8.761093750000002 5.388828125000003)">
      <g clip-path="url(#i2)">
        <polygon points="0,0 30.9595313,0 30.9595313,34.6110156 0,34.6110156 0,0" stroke="none" fill="#0076FF"></polygon>
      </g>
    </g>
    <g transform="translate(8.761093750000006 9.391171875)">
      <g clip-path="url(#i3)">
        <polygon points="0,0 21.6964844,0 21.6964844,19.1682031 0,19.1682031 0,0" stroke="none" fill="#FD8C71"></polygon>
      </g>
    </g>
    <g transform="translate(20.01578125 9.387890625)">
      <g clip-path="url(#i4)">
        <polygon points="0,0 10.4417969,0 10.4417969,19.1714844 0,19.1714844 0,0" stroke="none" fill="#F96551"></polygon>
      </g>
    </g>
    <g transform="translate(14.93002491321191 15.083593750000007)">
      <g clip-path="url(#i5)">
        <polygon points="-4.4408921e-16,0 10.1715282,0 10.1715282,20.9064595 -4.4408921e-16,20.9064595 -4.4408921e-16,0" stroke="none" fill="#2E3439"></polygon>
      </g>
    </g>
    <g transform="translate(19.99890625 15.083515624999999)">
      <g clip-path="url(#i6)">
        <polygon points="0,0 5.10264687,0 5.10264687,20.9064062 0,20.9064062 0,0" stroke="none" fill="#111C27"></polygon>
      </g>
    </g>
    <g transform="translate(17.19216328125 8.715502343750002) rotate(-76.76931683294434)">
      <g clip-path="url(#i7)">
        <polygon points="0,0 4.71075375,0 4.71075375,4.71075375 0,4.71075375 0,0" stroke="none" fill="#FFCDBE"></polygon>
      </g>
    </g>
    <g transform="translate(19.99890625 4.616406250000001)">
      <g clip-path="url(#i8)">
        <polygon points="0,0 2.37085937,0 2.37085937,4.70796875 0,4.70796875 0,0" stroke="none" fill="#FAA68E" opacity="52.8715588%"></polygon>
      </g>
    </g>
    <g transform="translate(12.21278334723581 9.313046874999998)">
      <g clip-path="url(#i9)">
        <polygon points="5.55111512e-17,0 15.6059733,0 15.6059733,10.7307031 5.55111512e-17,10.7307031 5.55111512e-17,0" stroke="none" fill="#FFFFFF"></polygon>
      </g>
    </g>
    <g transform="translate(19.99890625 9.313046875000005)">
      <g clip-path="url(#i10)">
        <polygon points="0,0 7.8198729,0 7.8198729,10.7307031 0,10.7307031 0,0" stroke="none" fill="#E9EDF5" opacity="59.7888765%"></polygon>
      </g>
    </g>
  </g>
</svg>