<?xml version="1.0" encoding="UTF-8"?><svg version="1.1" width="17px" height="18px" viewBox="0 0 17.0 18.0" xmlns="http://www.w3.org/2000/svg" xmlns:xlink="http://www.w3.org/1999/xlink">
  <defs>
    <clipPath id="i0">
      <path d="M1024,0 L1024,5988 L0,5988 L0,0 L1024,0 Z"></path>
    </clipPath>
    <clipPath id="i1">
      <path d="M8.5,0 C13.1949217,0 17,3.80507833 17,8.5 C17,13.1949217 13.1949217,17 8.5,17 C3.80507833,17 0,13.1949217 0,8.5 C0,3.80507833 3.80507833,0 8.5,0 Z M9.5625,10.625 L7.4375,10.625 C5.86035156,10.625 4.53222656,11.6177732 3.99433604,13.0059958 C5.14980489,14.1601368 6.74255884,14.875 8.5,14.875 C10.2564451,14.875 11.8501951,14.1611328 13.0056645,13.0059958 C12.4691018,11.6171095 11.1409768,10.625 9.5625,10.625 Z M8.5,4.25 C7.17851552,4.25 6.109375,5.32046843 6.109375,6.640625 C6.109375,7.96078107 7.17984393,9.03125 8.5,9.03125 C9.82148397,9.03125 10.890625,7.96078107 10.890625,6.640625 C10.890625,5.32046843 9.82048792,4.25 8.5,4.25 Z"></path>
    </clipPath>
  </defs>
  <g transform="translate(-393.0 -382.0)">
    <g clip-path="url(#i0)">
      <g transform="translate(357.0 218.0)">
        <g transform="translate(35.0 52.0)">
          <g transform="translate(1.0 112.125)">
            <g clip-path="url(#i1)">
              <polygon points="0,0 17,0 17,17 0,17 0,0" stroke="none" fill="#AEC3DD"></polygon>
            </g>
          </g>
        </g>
      </g>
    </g>
  </g>
</svg>