<?xml version="1.0" encoding="UTF-8"?>
<svg width="17px" height="18px" viewBox="0 0 17 18" version="1.1" xmlns="http://www.w3.org/2000/svg" xmlns:xlink="http://www.w3.org/1999/xlink">
  <title>BB908018-3F93-4056-8801-47E036989168</title>
  <g id="High-Fidelity-Screens---Selects" stroke="none" stroke-width="1" fill="none" fill-rule="evenodd">
    <g id="General-3Up-Shorter-Icons" transform="translate(-393.000000, -396.000000)" fill="#AEC3DD" fill-rule="nonzero">
      <g id="Tile-3Up-Co-Copy-5" transform="translate(357.000000, 218.000000)">
        <g id="Top" transform="translate(35.000000, 36.000000)">
          <g id="Group" transform="translate(1.000000, 113.125000)">
            <g id="Duration" transform="translate(0.000000, 29.000000)">
              <path d="M17,8.5 C17,13.1949217 13.1949217,17 8.5,17 C3.80507833,17 0,13.1949217 0,8.5 C0,6.12265605 0.978164285,3.97109395 2.55132851,2.42847705 C2.97035229,2.0180859 3.64238372,2.02472693 4.05410278,2.4437502 C4.46582183,2.86310583 4.45918131,3.53613281 4.03750122,3.94785136 C2.85646582,5.10332072 2.12500101,6.71699229 2.12500101,8.5 C2.12500101,12.0195312 4.95058715,14.875 8.5,14.875 C12.0195323,14.875 14.875001,12.0195312 14.875001,8.5 C14.875001,5.34238261 12.5773444,2.71900439 9.56250101,2.21298808 L9.56250101,3.1875 C9.56250101,3.77519572 9.08769673,4.25 8.5,4.25 C7.9123058,4.25 7.43750101,3.77519572 7.43750101,3.1875 L7.43750101,1.0625 C7.43750101,0.475800335 7.9123058,0 8.5,0 C13.1949227,0 17,3.80507833 17,8.5 L17,8.5 Z M9.03457153,7.93554688 C9.3732428,8.24765605 9.3732428,8.75234395 9.03457153,9.03457052 C8.75234497,9.37324178 8.24765706,9.37324178 7.93554789,9.03457052 L5.27929789,6.37832052 C4.97050872,6.09609395 4.97050872,5.59140605 5.27929789,5.27929688 C5.59140706,4.97050822 6.09609497,4.97050822 6.37832153,5.27929688 L9.03457153,7.93554688 Z" id="Shape"></path>
            </g>
          </g>
        </g>
      </g>
    </g>
  </g>
</svg>