<?xml version="1.0" encoding="UTF-8"?>
<svg width="17px" height="18px" viewBox="0 0 17 18" version="1.1" xmlns="http://www.w3.org/2000/svg" xmlns:xlink="http://www.w3.org/1999/xlink">
    <title>84DA6BDC-4729-46FB-B3E3-10DF0EF52C4C</title>
    <g id="High-Fidelity-Screens---Selects" stroke="none" stroke-width="1" fill="none" fill-rule="evenodd">
        <g id="General-3Up-Shorter-Icons" transform="translate(-393.000000, -425.000000)" fill="#AEC3DD" fill-rule="nonzero">
            <g id="Tile-3Up-Co-Copy-5" transform="translate(357.000000, 218.000000)">
                <g id="Top" transform="translate(35.000000, 36.000000)">
                    <g id="Group" transform="translate(1.000000, 113.125000)">
                        <g id="Question-Count" transform="translate(0.000000, 58.000000)">
                            <path d="M8.5,0 C3.80507833,0 0,3.80507833 0,8.5 C0,13.1949217 3.80507833,17 8.5,17 C13.1949217,17 17,13.1949217 17,8.5 C17,3.80507833 13.1949217,0 8.5,0 Z M8.5,13.28125 C7.90234375,13.28125 7.4375,12.8164062 7.4375,12.21875 C7.4375,11.6210938 7.87246114,11.15625 8.5,11.15625 C9.06777364,11.15625 9.5625,11.6210938 9.5625,12.21875 C9.5625,12.8164062 9.06777364,13.28125 8.5,13.28125 Z M10.7943361,8.56640625 L9.296875,9.49609375 L9.296875,9.5625 C9.296875,9.99414062 8.93164062,10.359375 8.5,10.359375 C8.06835938,10.359375 7.703125,9.99414062 7.703125,9.5625 L7.703125,9.03125 C7.703125,8.765625 7.8359375,8.5 8.1015625,8.33398438 L9.99414062,7.20507812 C10.2265625,7.07226562 10.359375,6.83984375 10.359375,6.57421875 C10.359375,6.17578125 9.99746114,5.84375 9.59902364,5.84375 L7.90234375,5.84375 C7.47402364,5.84375 7.171875,6.17578125 7.171875,6.57421875 C7.171875,7.00585938 6.80664062,7.37109375 6.375,7.37109375 C5.94335938,7.37109375 5.578125,7.00585938 5.578125,6.57421875 C5.578125,5.27929688 6.60742188,4.25 7.87246114,4.25 L9.56914103,4.25 C10.9238281,4.25 11.953125,5.27929688 11.953125,6.57421875 C11.953125,7.37109375 11.5214844,8.13476562 10.7943361,8.56640625 Z" id="Shape"></path>
                        </g>
                    </g>
                </g>
            </g>
        </g>
    </g>
</svg>