<svg width="210px" height="140px" viewBox="0 0 210 140" version="1.1" xmlns="http://www.w3.org/2000/svg" xmlns:xlink="http://www.w3.org/1999/xlink" transform="rotate(0) scale(1, 1)">
  <defs>
    <path d="M63.1910619,71.6513972 L142.741141,71.6513972 C144.255185,71.6513972 145.482561,72.8787723 145.482561,74.3928163 L145.482561,118.008475 L145.482561,118.008475 L60.4496428,118.008475 L60.4496428,74.3928163 C60.4496428,72.8787723 61.677018,71.6513972 63.1910619,71.6513972 Z" id="path-pemq_ki095-1"/>
    <polygon id="path-pemq_ki095-2" points="48.8135593 129.79909 157.118644 129.79909 149.136261 121.740352 56.782818 121.740352"/>
    <path d="M161.237288,44.0670974 L191.898305,44.0670974 C195.508475,44.0670974 198.40678,46.9654025 198.40678,50.575572 C198.40678,54.1857415 195.508475,57.0840466 191.898305,57.0840466 L186.813559,57.0840466 C187.169492,58.6094703 187.932203,61.2535381 188.949153,62.01625 C188.949153,62.01625 184.016949,59.3721822 183.20339,57.0840466 L161.186441,57.0840466 C157.576271,57.0840466 154.677966,54.1857415 154.677966,50.575572 C154.728814,46.9654025 157.677966,44.0670974 161.237288,44.0670974 Z" id="path-pemq_ki095-3"/>
    <path d="M83.8703362,27.8813559 C69.8299491,27.8813559 58.4745763,39.2267989 58.4745763,53.2549081 C58.4745763,64.4885733 65.7464899,73.9896832 75.8712312,77.3430161 C76.0949824,79.6344602 75.927169,83.2113486 73.0184035,85.3351261 C73.0184035,85.3351261 82.3040779,85.7263483 83.7584606,78.6284603 C83.8143984,78.6284603 83.8703362,78.6284603 83.926274,78.6284603 C97.9666611,78.6284603 109.322034,67.2830174 109.322034,53.2549081 C109.266096,39.2826878 97.8547855,27.8813559 83.8703362,27.8813559 Z" id="path-pemq_ki095-4"/>
    <path d="M117.20339,20.7627119 C134.198175,20.7627119 147.966102,34.4320499 147.966102,51.3051391 C147.966102,64.8142896 139.146023,76.2410019 126.883963,80.2990867 C126.561278,83.0222751 126.776402,87.3473391 130.379726,89.91034 C130.379726,89.91034 119.085724,90.3909027 117.418514,81.8475664 C117.364733,81.8475664 117.310952,81.8475664 117.20339,81.8475664 C100.208605,81.8475664 86.440678,68.1782283 86.440678,51.3051391 C86.440678,34.4320499 100.208605,20.7627119 117.20339,20.7627119 Z" id="path-pemq_ki095-5"/>
  </defs>
  <g id="MIP-Illustrations" stroke="none" stroke-width="1" fill="none" fill-rule="evenodd">
    <g id="Questions-Illo">
      <rect id="Rectangle" fill="#ffffff00" x="0" y="0" width="210" height="140"/>
      <ellipse id="Oval" fill="#bee9ea" fill-rule="nonzero" cx="103.596045" cy="134.627119" rx="87.8333333" ry="2"/>
      <line x1="35.3875027" y1="130.723961" x2="35.9694579" y2="134.611687" id="Path-2" stroke="#b7b13b" stroke-width="0.860028727" stroke-linecap="round" stroke-linejoin="round"/>
      <path d="M39.531568,126.899016 L41.4980321,125.052505 C41.4980321,124.544715 41.4980321,124.036924 41.4500696,123.529134 C40.9224816,119.097508 37.2293662,115.866114 33.2484755,116.327741 C29.2675848,116.789369 26.4857575,120.713205 27.0133455,125.144831 C27.5409334,129.576457 31.2340488,132.807851 35.2149395,132.346223 C38.0447293,132.023084 40.2510061,129.945759 41.1143318,127.12983 L39.531568,126.899016 Z" id="Path" fill="#b7b13b" fill-rule="nonzero"/>
      <path d="M33.0500376,117.588822 L33.9291251,122.397366 L35.5019633,120.141711 C35.5981172,120.050537 35.7423481,120.004949 35.8385021,120.096124 C35.934656,120.187299 35.982733,120.324061 35.8865791,120.415235 L34.0488367,123.051088 L34.5053608,125.542985 C34.5603333,125.602972 34.572616,125.683948 34.5422088,125.745456 L34.7993183,127.15349 L37.5692731,123.788696 C37.6654271,123.697522 37.809658,123.651934 37.905812,123.743109 C37.9912821,123.824153 38.0387656,123.941217 37.9807303,124.030265 L34.9103761,127.759801 L35.7423481,132.116606 C35.7864187,132.241971 35.7092952,132.367336 35.5480092,132.387359 L35.5019633,132.390129 C35.4058093,132.390129 35.3096554,132.298955 35.2615784,132.20778 L34.0579714,125.818693 L30.0211882,124.426919 C29.8769573,124.381331 29.8288803,124.244569 29.8769573,124.153395 C29.9196924,124.031829 30.038401,123.982302 30.1317851,124.004814 L33.9680674,125.327718 L33.020951,120.150367 L30.8384968,119.503489 C30.6942659,119.457902 30.6461889,119.32114 30.6942659,119.229965 C30.7423429,119.093203 30.8865738,119.047616 30.9827277,119.093203 L32.9334509,119.671244 L32.5692679,117.679996 C32.5692679,117.543235 32.6173448,117.45206 32.7615758,117.406473 C32.9058067,117.360885 33.0019606,117.45206 33.0500376,117.588822 Z" id="Path" fill="#ffffff00" fill-rule="nonzero"/>
      <path d="M168.653331,135.010119 C168.653331,135.010119 166.794307,121.224387 178.675892,114.052618 C178.675892,114.052618 178.756719,117.797875 178.029275,120.268151 L175.927771,120.746269 L177.544313,122.100936 C177.544313,122.100936 174.796191,128.794586 169.219121,135.010119 L168.653331,135.010119 Z" id="Path" fill="#a8a848" fill-rule="nonzero"/>
      <path d="M170.674008,135.010119 C170.674008,135.010119 174.311228,125.766506 184.495444,125.368075 C184.495444,125.368075 183.687173,128.555527 181.666495,130.149254 L180.292434,129.59145 L180.534916,131.264862 C180.534916,131.264862 178.110102,133.89451 171.563107,134.930433 L170.674008,134.930433 L170.674008,135.010119 Z" id="Path" fill="#a8a848" fill-rule="nonzero"/>
      <path d="M169.219121,135.169492 C169.138293,135.169492 169.138293,135.169492 169.219121,135.169492 C169.057466,135.169492 168.976639,135.010119 169.057466,134.930433 C170.593181,126.244624 178.433411,114.052618 178.514238,113.893246 C178.595065,113.813559 178.675892,113.813559 178.756719,113.813559 C178.837546,113.893246 178.918374,113.972932 178.837546,114.052618 C178.756719,114.211991 170.997317,126.324311 169.461602,134.930433 C169.380775,135.089805 169.299948,135.169492 169.219121,135.169492 Z" id="Path" fill="#ffffff00" fill-rule="nonzero"/>
      <path d="M171.563107,135.169492 C171.48228,135.169492 171.48228,135.169492 171.401452,135.089805 C171.320625,135.010119 171.320625,134.850746 171.401452,134.77106 C171.48228,134.691374 177.221004,128.874273 184.33379,125.129016 C184.414617,125.04933 184.576271,125.129016 184.576271,125.208702 C184.576271,125.288389 184.576271,125.447761 184.495444,125.447761 C177.382659,129.193018 171.724761,134.930433 171.643934,135.010119 C171.643934,135.169492 171.643934,135.169492 171.563107,135.169492 Z" id="Path" fill="#ffffff00" fill-rule="nonzero"/>
      <path d="M64.1066562,68.0508475 L141.825547,68.0508475 C145.822623,68.0508475 149.062894,71.291118 149.062894,75.2881943 L149.062894,121.609024 L149.062894,121.609024 L56.8693094,121.609024 L56.8693094,75.2881943 C56.8693094,71.291118 60.10958,68.0508475 64.1066562,68.0508475 Z" id="Rectangle-Copy" fill="#2c466d" fill-rule="nonzero"/>
      <g id="Rectangle-Copy-2" fill-rule="nonzero">
        <use fill="#ffde9600" xlink:href="#path-pemq_ki095-1"/>
        <use fill-opacity="0.9" fill="#ffffff00" xlink:href="#path-pemq_ki095-1"/>
      </g>
      <path d="M82.4245906,79.7457627 L117.405918,79.7457627 C119.119413,79.7457627 120.508475,81.1348247 120.508475,82.8483194 L120.508475,117.881356 L120.508475,117.881356 L79.3220339,117.881356 L79.3220339,82.8483194 C79.3220339,81.1348247 80.7110959,79.7457627 82.4245906,79.7457627 Z" id="Rectangle" fill="#bbe1fa" fill-rule="nonzero"/>
      <path d="M86.440678,96.5254237 L113.389831,96.5254237 C113.951476,96.5254237 114.40678,96.9807274 114.40678,97.5423729 L114.40678,112.288136 C114.40678,112.849781 113.951476,113.305085 113.389831,113.305085 L86.440678,113.305085 C85.8790325,113.305085 85.4237288,112.849781 85.4237288,112.288136 L85.4237288,97.5423729 C85.4237288,96.9807274 85.8790325,96.5254237 86.440678,96.5254237 Z M86.440678,85.3389831 L108.305085,85.3389831 C108.86673,85.3389831 109.322034,85.7942867 109.322034,86.3559322 L109.322034,86.8644068 C109.322034,87.4260523 108.86673,87.8813559 108.305085,87.8813559 L86.440678,87.8813559 C85.8790325,87.8813559 85.4237288,87.4260523 85.4237288,86.8644068 L85.4237288,86.3559322 C85.4237288,85.7942867 85.8790325,85.3389831 86.440678,85.3389831 Z M86.440678,89.9152542 L103.220339,89.9152542 C103.781984,89.9152542 104.237288,90.3705579 104.237288,90.9322034 L104.237288,91.440678 C104.237288,92.0023235 103.781984,92.4576271 103.220339,92.4576271 L86.440678,92.4576271 C85.8790325,92.4576271 85.4237288,92.0023235 85.4237288,91.440678 L85.4237288,90.9322034 C85.4237288,90.3705579 85.8790325,89.9152542 86.440678,89.9152542 Z" id="Shape" fill="#fff4f4"/>
      <path d="M48.8135593,129.79909 L157.118644,129.79909 L157.118644,131.042344 C157.118644,133.040882 155.498509,134.661017 153.499971,134.661017 L52.4322327,134.661017 C50.4336946,134.661017 48.8135593,133.040882 48.8135593,131.042344 L48.8135593,129.79909 L48.8135593,129.79909 Z" id="Rectangle-Copy-3" fill="#8ecedd" fill-rule="nonzero"/>
      <g id="Rectangle-Copy-7" fill-rule="nonzero">
        <use fill="#d3ecef" xlink:href="#path-pemq_ki095-2"/>
        <use fill-opacity="0.2" fill="#8ecedd" xlink:href="#path-pemq_ki095-2"/>
      </g>
      <path d="M45.9661017,51.0331991 L22.3728814,51.0331991 C19.6271186,51.0331991 17.3898305,53.2704872 17.3898305,56.01625 C17.3898305,58.7620127 19.6271186,60.9993008 22.3728814,60.9993008 L26.2881356,60.9993008 C25.9830508,62.1687923 25.4237288,64.2026906 24.6610169,64.8128601 C24.6610169,64.8128601 28.4745763,62.7789618 29.0847458,60.9993008 L46.0169492,60.9993008 C48.7627119,60.9993008 51,58.7620127 51,56.01625 C51,53.2704872 48.7627119,51.0331991 45.9661017,51.0331991 Z" id="Path" fill="#8ecedd" fill-rule="nonzero" transform="translate(34.194915, 57.923030) scale(-1, 1) translate(-34.194915, -57.923030) "/>
      <path d="M35.1959746,58.355233 C34.9925847,58.355233 34.8400424,58.355233 34.6366525,58.3043855 C33.7722458,58.2026906 33.2637712,57.9484533 32.907839,57.5925211 C32.2976695,57.8976059 31.5858051,58.1009957 30.6705508,58.1518432 C29.7044492,58.2026906 29.0434322,57.9993008 28.5858051,57.6942161 C28.128178,57.9484533 27.5688559,58.1009957 26.907839,58.1518432 C25.6366525,58.2535381 24.6705508,57.9484533 24.0603814,57.2874364 C23.1451271,56.3213347 23.2976695,54.8976059 23.2976695,54.8467584 C23.2976695,54.7450635 23.3993644,54.6433686 23.5519068,54.6433686 C23.6536017,54.6433686 23.7552966,54.7450635 23.7552966,54.8976059 C23.7552966,54.8976059 23.6027542,56.1687923 24.3654661,56.9823516 C24.8739407,57.5416737 25.7383475,57.7450635 26.8569915,57.6942161 C27.4163136,57.6433686 27.8230932,57.5416737 28.2298729,57.3891313 C28.0773305,57.2365889 27.9247881,57.0331991 27.8230932,56.8806567 C27.2637712,55.9654025 27.4163136,54.7450635 27.8739407,54.0840466 C28.128178,53.6772669 28.4841102,53.4738771 28.8908898,53.4738771 C29.6027542,53.5247245 30.1112288,54.2874364 30.1112288,55.2535381 C30.1112288,55.9654025 29.8061441,56.7789618 29.0434322,57.3382839 C29.5010593,57.5416737 30.0095339,57.6433686 30.6705508,57.6433686 C31.4841102,57.5925211 32.0942797,57.4399788 32.6536017,57.1857415 C32.5519068,57.0331991 32.5010593,56.9315042 32.5010593,56.7789618 C32.1451271,55.6603177 32.8061441,54.2874364 33.4163136,53.7281144 C33.7213983,53.4230296 34.0773305,53.3213347 34.3315678,53.4738771 C34.7891949,53.6772669 34.9925847,54.3382839 34.8400424,55.1009957 C34.6875,55.8637076 34.2298729,56.7281144 33.3146186,57.3382839 C33.6197034,57.5925211 34.0773305,57.795911 34.6875,57.8467584 C35.7552966,57.9484533 36.8230932,57.6942161 37.7891949,57.2365889 C37.5349576,56.9823516 37.3824153,56.6772669 37.3315678,56.4230296 C37.0264831,55.355233 37.7891949,54.0840466 38.7044492,53.3721822 C39.467161,52.8128601 40.2298729,52.6603177 40.7891949,52.9654025 C41.2976695,53.2704872 41.4502119,53.7789618 41.246822,54.4399788 C40.9417373,55.355233 39.9247881,56.4738771 38.6027542,57.2365889 C38.9586864,57.4399788 39.4163136,57.5416737 39.9756356,57.6433686 C42.1112288,57.9484533 44.0434322,57.5416737 45.4163136,56.9315042 C45.2637712,56.7281144 45.2129237,56.5247245 45.1620763,56.3721822 C44.9586864,55.5077754 45.6197034,54.4908262 46.3315678,54.0840466 C46.8400424,53.8298093 47.2976695,53.8806567 47.6536017,54.2365889 C48.0095339,54.5925211 48.0095339,55.1009957 47.7552966,55.6094703 C47.5010593,56.1179449 46.9925847,56.6264194 46.2298729,57.0331991 C46.6875,57.2874364 47.3485169,57.4399788 48.2129237,57.4908262 C48.3146186,57.4908262 48.4163136,57.5925211 48.4163136,57.6942161 C48.4163136,57.795911 48.3146186,57.8976059 48.2129237,57.8976059 C48.2129237,57.8976059 48.2129237,57.8976059 48.2129237,57.8976059 C46.9925847,57.8467584 46.2807203,57.5925211 45.8230932,57.2365889 C44.3993644,57.9484533 42.3146186,58.4060805 39.9756356,58.0501483 C39.2129237,57.9484533 38.6536017,57.6942161 38.246822,57.4399788 C37.2807203,58.0501483 36.2637712,58.355233 35.1959746,58.355233 Z M28.8400424,53.9315042 C28.5858051,53.9315042 28.3824153,54.1857415 28.2807203,54.3382839 C27.9247881,54.8976059 27.8230932,55.8637076 28.2807203,56.6772669 C28.3824153,56.8806567 28.5349576,57.0331991 28.6875,57.1857415 C29.3993644,56.6772669 29.7044492,55.9654025 29.7044492,55.355233 C29.7044492,54.5925211 29.3485169,53.9823516 28.8400424,53.9315042 C28.8908898,53.9315042 28.8400424,53.9315042 28.8400424,53.9315042 Z M40.1790254,53.2704872 C39.8230932,53.2704872 39.4163136,53.4230296 39.0095339,53.7281144 C38.246822,54.3382839 37.5349576,55.4060805 37.7891949,56.3213347 C37.8400424,56.575572 37.9925847,56.8298093 38.246822,57.0331991 C39.5688559,56.3213347 40.5858051,55.2535381 40.8908898,54.3382839 C41.0434322,53.8806567 40.9417373,53.5247245 40.6366525,53.3721822 C40.4841102,53.3213347 40.3315678,53.2704872 40.1790254,53.2704872 Z M34.128178,53.9315042 C34.0264831,53.9315042 33.8739407,53.9823516 33.7213983,54.134894 C33.2129237,54.5925211 32.6027542,55.8128601 32.907839,56.7281144 C32.9586864,56.8298093 33.0095339,56.9315042 33.0603814,57.0331991 C33.8739407,56.5247245 34.3315678,55.7620127 34.4332627,55.0501483 C34.5349576,54.4908262 34.4332627,54.0331991 34.1790254,53.9315042 C34.128178,53.9315042 34.128178,53.9315042 34.128178,53.9315042 Z M46.9925847,54.3891313 C46.8400424,54.3891313 46.6875,54.4399788 46.5858051,54.4908262 C46.0264831,54.795911 45.467161,55.6094703 45.6197034,56.2704872 C45.6705508,56.4230296 45.7213983,56.575572 45.8739407,56.7281144 C46.6366525,56.3213347 47.1451271,55.8128601 47.3993644,55.355233 C47.6027542,54.9993008 47.6027542,54.6942161 47.3993644,54.4908262 C47.246822,54.4399788 47.0942797,54.3891313 46.9925847,54.3891313 Z" id="Shape" fill="#ffffff00" fill-rule="nonzero" transform="translate(35.852225, 55.583078) scale(-1, 1) translate(-35.852225, -55.583078) "/>
      <g id="Path" fill-rule="nonzero" transform="translate(176.542373, 53.041674) scale(-1, 1) translate(-176.542373, -53.041674) ">
        <use fill="#32acfc" xlink:href="#path-pemq_ki095-3"/>
        <use fill-opacity="0.5" fill="undefined" xlink:href="#path-pemq_ki095-3"/>
      </g>
      <path d="M41.0576655,81.1124867 C42.292851,81.1124867 43.4058672,81.6089585 44.2103437,82.413435 C45.0148202,83.2179114 45.511292,84.3309277 45.511292,85.5661131 C45.511292,86.8012986 45.0148202,87.9143148 44.2103437,88.7187913 C43.4058672,89.5232678 42.292851,90.0197396 41.0576655,90.0197396 L39.7390399,90.0197396 C39.8445144,90.846378 39.8989171,92.0194012 39.894352,93.5401132 L35.1832383,90.0197396 L27.8718971,90.0197396 C26.6367116,90.0197396 25.5236954,89.5232678 24.7192189,88.7187913 C23.9147424,87.9143148 23.4182706,86.8012986 23.4183283,85.5579206 C23.4356543,84.3277766 23.9456036,83.2185592 24.7544515,82.4159815 C25.5677591,81.6089786 26.6828616,81.1124867 27.9021463,81.1124867 Z" id="Path-Copy" stroke="#2c466d" stroke-width="1.16345878" stroke-linejoin="round" fill-rule="nonzero"/>
      <path d="M179.542373,53.4738771 C178.169492,53.4738771 176.847458,53.0670974 175.677966,52.4569279 C175.169492,52.8128601 174.457627,53.0670974 173.440678,53.2196398 C170.389831,53.6772669 167.745763,53.0670974 165.864407,52.1518432 C165.305085,52.6094703 164.338983,52.914555 162.762712,53.01625 C162.762712,53.01625 162.762712,53.01625 162.762712,53.01625 C162.661017,53.01625 162.559322,52.914555 162.559322,52.8128601 C162.559322,52.7111652 162.661017,52.6094703 162.762712,52.6094703 C163.932203,52.5586228 164.847458,52.355233 165.457627,51.9484533 C164.440678,51.3891313 163.728814,50.6772669 163.423729,50.0670974 C163.067797,49.4060805 163.118644,48.795911 163.525424,48.3891313 C163.932203,47.9823516 164.491525,47.8806567 165.152542,48.2365889 C166.067797,48.7450635 166.932203,50.01625 166.677966,51.134894 C166.627119,51.3891313 166.474576,51.6942161 166.271186,51.9484533 C168.050847,52.8128601 170.59322,53.3721822 173.440678,52.914555 C174.20339,52.8128601 174.813559,52.6094703 175.322034,52.3043855 C173.59322,51.2874364 172.220339,49.8128601 171.813559,48.6433686 C171.559322,47.8298093 171.762712,47.1687923 172.372881,46.7620127 C173.084746,46.355233 174.050847,46.5586228 175.016949,47.2704872 C176.186441,48.134894 177.152542,49.7620127 176.79661,51.134894 C176.694915,51.4908262 176.491525,51.8976059 176.135593,52.2535381 C177.457627,52.914555 178.881356,53.2704872 180.305085,53.1179449 C181.169492,53.01625 181.779661,52.7620127 182.186441,52.355233 C180.966102,51.5925211 180.355932,50.4738771 180.152542,49.4569279 C179.949153,48.4908262 180.20339,47.6772669 180.762712,47.4230296 C181.067797,47.2704872 181.474576,47.3721822 181.881356,47.7789618 C182.694915,48.4908262 183.508475,50.2196398 183.050847,51.6942161 C183,51.8467584 182.898305,52.0501483 182.79661,52.2535381 C183.508475,52.6094703 184.372881,52.8637076 185.440678,52.914555 C186.457627,52.9654025 187.169492,52.7620127 187.677966,52.5077754 C186.661017,51.795911 186.254237,50.7281144 186.254237,49.7620127 C186.254237,48.5416737 186.915254,47.575572 187.779661,47.4738771 C188.237288,47.4230296 188.694915,47.6772669 189,48.2365889 C189.559322,49.1009957 189.711864,50.575572 189.050847,51.795911 C188.898305,52.0501483 188.745763,52.2535381 188.491525,52.5077754 C189,52.7620127 189.610169,52.914555 190.372881,52.9654025 C191.847458,53.0670974 192.966102,52.7620127 193.677966,52.0501483 C194.694915,50.9823516 194.542373,49.3043855 194.491525,49.3043855 C194.491525,49.2026906 194.542373,49.1009957 194.694915,49.0501483 C194.847458,49.0501483 194.898305,49.1009957 194.949153,49.2535381 C194.949153,49.3043855 195.152542,51.134894 193.983051,52.355233 C193.169492,53.1687923 191.949153,53.575572 190.322034,53.4230296 C189.40678,53.3721822 188.694915,53.1179449 188.084746,52.8128601 C187.474576,53.2196398 186.661017,53.4738771 185.389831,53.4230296 C184.220339,53.3721822 183.254237,53.0670974 182.491525,52.6603177 C182.084746,53.1179449 181.372881,53.4738771 180.254237,53.6264194 C180,53.4738771 179.745763,53.4738771 179.542373,53.4738771 Z M187.830508,47.7789618 C187.830508,47.7789618 187.779661,47.7789618 187.779661,47.7789618 C187.169492,47.8298093 186.661017,48.6433686 186.661017,49.6094703 C186.661017,50.4738771 187.067797,51.4399788 188.084746,52.1009957 C188.338983,51.8976059 188.542373,51.6433686 188.644068,51.4399788 C189.254237,50.4230296 189.101695,49.0501483 188.59322,48.3382839 C188.440678,48.134894 188.186441,47.7789618 187.830508,47.7789618 Z M180.966102,47.7789618 C180.915254,47.7789618 180.864407,47.7789618 180.864407,47.7789618 C180.508475,47.9315042 180.355932,48.5925211 180.457627,49.3043855 C180.610169,50.2196398 181.220339,51.2365889 182.338983,51.9484533 C182.440678,51.795911 182.491525,51.6433686 182.542373,51.4908262 C182.949153,50.2704872 182.186441,48.6433686 181.474576,48.0331991 C181.322034,47.8298093 181.118644,47.7789618 180.966102,47.7789618 Z M173.084746,46.914555 C172.881356,46.914555 172.677966,46.9654025 172.474576,47.0670974 C172.016949,47.3213347 171.915254,47.7789618 172.118644,48.4399788 C172.474576,49.6094703 173.847458,51.0331991 175.576271,51.9993008 C175.881356,51.7450635 176.135593,51.3891313 176.237288,50.9823516 C176.542373,49.7620127 175.677966,48.3382839 174.610169,47.575572 C174.101695,47.1179449 173.542373,46.914555 173.084746,46.914555 Z M164.237288,48.3891313 C164.084746,48.3891313 163.881356,48.4399788 163.728814,48.5925211 C163.372881,48.9993008 163.525424,49.4569279 163.677966,49.8128601 C163.983051,50.4230296 164.694915,51.0840466 165.711864,51.6433686 C165.915254,51.4399788 166.016949,51.2365889 166.118644,50.9315042 C166.322034,50.01625 165.610169,48.9484533 164.847458,48.5416737 C164.694915,48.4908262 164.491525,48.3891313 164.237288,48.3891313 Z" id="Shape" fill="#ffffff00" fill-rule="nonzero"/>
      <g id="Path" fill-rule="nonzero">
        <use fill="undefined" xlink:href="#path-pemq_ki095-4"/>
        <use fill-opacity="0.0866477273" fill="undefined" xlink:href="#path-pemq_ki095-4"/>
        <use fill-opacity="0.8" fill="#ffde9600" xlink:href="#path-pemq_ki095-4"/>
      </g>
      <g id="Path" fill-rule="nonzero">
        <use fill="#32acfc" xlink:href="#path-pemq_ki095-5"/>
        <use fill-opacity="0.3" fill="undefined" xlink:href="#path-pemq_ki095-5"/>
      </g>
      <path d="M118.42401,46.9744558 C119.154415,46.5808499 119.772451,46.187244 120.334301,45.793638 C120.896151,45.4000321 121.345632,44.9501968 121.738927,44.5003615 C122.132222,44.0505261 122.413147,43.488232 122.637887,42.9259378 C122.862628,42.3636437 122.918813,41.6888907 122.918813,40.9016788 C122.918813,39.8895494 122.637887,39.1023375 122.076037,38.4275845 C121.514187,37.7528316 120.671411,37.4154551 119.603895,37.4154551 C118.19927,37.4154551 117.187939,37.9215198 116.569904,38.8774199 C115.895683,39.8895494 115.558573,41.0141377 115.558573,42.2511848 C115.558573,42.7010202 115.558573,43.0946261 115.614758,43.4320026 C115.670943,43.7693791 115.727128,44.0505261 115.783313,44.3879026 L110.72666,44.3879026 C110.27718,44.0505261 109.940069,43.6006908 109.715329,43.2070849 C109.490589,42.7572496 109.322034,42.1949554 109.322034,41.5764318 C109.322034,40.5080729 109.602959,39.5521729 110.164809,38.7087316 C110.72666,37.8652904 111.457065,37.0780786 112.412211,36.459555 C113.367356,35.8410314 114.491057,35.3349667 115.783313,34.9975902 C117.075569,34.6602137 118.42401,34.4915254 119.941006,34.4915254 C123.087368,34.4915254 125.447139,35.2225078 127.13269,36.6844726 C128.818241,38.1464375 129.661017,40.0582376 129.661017,42.4761025 C129.661017,43.6569202 129.492462,44.7252791 129.099167,45.6249498 C128.705871,46.5246205 128.200206,47.3680617 127.582171,48.0428147 C126.964135,48.7737971 126.23373,49.3923207 125.390954,49.9546148 C124.548179,50.516909 123.705403,51.0229737 122.806443,51.4728091 C121.963667,51.9226444 121.177077,52.3724797 120.446671,52.7660856 C119.716266,53.1596915 119.09823,53.6095269 118.592565,54.0593622 C118.0869,54.5091975 117.637419,55.0152623 117.356494,55.521327 C117.019384,56.0273918 116.907014,56.6459153 116.907014,57.3206683 C116.907014,57.545586 116.907014,57.7142742 116.907014,57.8829625 C116.907014,58.0516507 116.963199,58.220339 116.963199,58.3890272 L114.884352,58.3890272 C114.210132,57.7705037 113.648282,57.1519801 113.198801,56.4772271 C112.749321,55.8024741 112.580766,54.9590329 112.580766,54.0031328 C112.580766,52.5973974 113.030246,51.4165796 113.985392,50.2919913 C114.996723,49.2236324 116.457533,48.0990441 118.42401,46.9744558 Z M109.771514,65.3052454 C109.771514,63.89951 110.220994,62.7749217 111.119955,61.875251 C112.018916,60.9755804 113.142616,60.4695156 114.434872,60.4695156 C115.727128,60.4695156 116.850829,60.919351 117.749789,61.875251 C118.64875,62.7749217 119.09823,63.9557394 119.09823,65.3052454 C119.09823,66.598522 118.64875,67.7231103 117.749789,68.6790104 C116.850829,69.578681 115.727128,70.0847458 114.434872,70.0847458 C113.142616,70.0847458 112.018916,69.6349104 111.119955,68.6790104 C110.220994,67.7231103 109.771514,66.598522 109.771514,65.3052454 Z" id="Shape" fill="#ffffff00" fill-rule="nonzero"/>
    </g>
  </g>
</svg>