<svg width="210px" height="140px" viewBox="0 0 210 140" version="1.1" xmlns="http://www.w3.org/2000/svg" xmlns:xlink="http://www.w3.org/1999/xlink" transform="rotate(0) scale(1, 1)">
  <defs>
    <path d="M175.109305,126.155307 C174.891145,125.485673 174.266828,125.032494 173.562553,125.03255 C163.532785,125.03255 156.010459,125.03255 150.995575,125.03255 C150.337837,125.03255 149.351229,124.82606 148.035752,124.413081 C147.33148,124.413081 146.707169,124.86621 146.489,125.535838 L144.452186,131.792723 L147.588496,132.412192 L177.146677,132.412192 L175.109305,126.155307 Z" id="path-xut7gdczcn-1"/>
    <polygon id="path-xut7gdczcn-2" points="180.329664 132.412192 147.549531 132.412192 147.549531 135.072501 180.329664 135.072501"/>
    <path d="M178.20665,126.155307 C177.98849,125.485673 177.364173,125.03255 176.659898,125.03255 L151.133097,125.03255 C150.428825,125.03255 149.804514,125.485679 149.586345,126.155307 L147.549531,132.412192 L180.244022,132.412192 L178.20665,126.155307 Z" id="path-xut7gdczcn-3"/>
    <path d="M146.004978,43.8702758 L152.440735,50.3061563 C152.850147,50.7222436 153.402123,50.9675822 153.985319,50.9926829 L170.117872,50.9926829 L170.117872,35.8897493 L145.232407,35.8897493 L145.232407,42.2398333 C145.404279,42.9263599 145.575593,43.4412316 146.004978,43.8702758 Z" id="path-xut7gdczcn-4"/>
    <path d="M174.954872,120.655816 L152.924354,120.655816 C152.325526,120.655816 151.840066,121.141275 151.840066,121.740103 L151.840066,125.032581 L176.039159,125.032581 L176.039159,121.740103 C176.039159,121.14136 175.553615,120.656038 174.954872,120.655816 L174.954872,120.655816 Z" id="path-xut7gdczcn-5"/>
    <path d="M4.42601238,4.73613631 L40.7567811,11.9251276 L40.7567811,11.9251276 L63.3209404,43.5470856 L10.9912944,55.6848068 L4.08937158,49.6952349 C3.79755044,49.441989 3.62993746,49.0746052 3.62993746,48.6882206 L3.62993746,5.39012251 C3.62993746,5.02193268 3.9284143,4.72345585 4.29660413,4.72345585 C4.34005035,4.72345585 4.38339253,4.72770287 4.42601238,4.73613631 Z" id="path-xut7gdczcn-6"/>
  </defs>
  <g id="MIP-Illustrations" stroke="none" stroke-width="1" fill="none" fill-rule="evenodd">
    <g id="Build-Illo">
      <rect id="Rectangle" fill="#ffffff00" x="0" y="0" width="210" height="140"/>
      <ellipse id="Oval" fill="#bee9ea" fill-rule="nonzero" cx="105" cy="134.666667" rx="93.3333333" ry="2"/>
      <polygon id="Path" fill="#2c466d" fill-rule="nonzero" points="21.9996062 113.200354 19.3394204 113.200354 19.3394204 134.910482 21.9996062 134.910482"/>
      <polygon id="Path" fill="#2c466d" fill-rule="nonzero" points="40.8783274 113.200354 38.2181416 113.200354 38.2181416 134.910482 40.8783274 134.910482"/>
      <polygon id="Path" fill="#32acfc" fill-rule="nonzero" points="44 114.333333 16 114.333333 16 123 44 123"/>
      <path d="M23,114.333333 L20.0501562,123 L16.6666667,123 L19.6165104,114.333333 L23,114.333333 Z M30,114.333333 L27.0501417,123 L23.6666667,123 L26.5297203,114.333333 L30,114.333333 Z M36.6666667,114.333333 L33.7168229,123 L30.3333333,123 L33.1963728,114.333333 L36.6666667,114.333333 Z M43.3333333,114.333333 L40.3834604,123 L37,123 L39.8630051,114.333333 L43.3333333,114.333333 Z" id="Shape" fill="#fff8ee" fill-rule="nonzero" opacity="0.8"/>
      <path d="M115.863606,133.980545 C109.121899,134.140765 101.095883,133.980545 95.3976731,133.899928 C89.6996078,134.060641 81.6739683,134.140765 74.9322909,133.980545 C81.5938709,130.208208 83.8410871,123.226346 84.2421532,118.57125 L106.473096,118.57125 C106.95478,123.226346 109.202026,130.208208 115.863606,133.980545 Z" id="Path" fill="#d3ecef" fill-rule="nonzero"/>
      <path d="M83.3333333,123.083333 C83,124.583333 82.1666667,126.083333 81.4166667,127.583333 L109.25,127.583333 C108.744203,126.128688 107.678822,124.598018 107.5,123.083333" id="Path" fill="#8ecedd" fill-rule="nonzero"/>
      <path d="M140.309415,65.6268021 L140.309415,122.750772 C140.32026,123.413772 140.042294,124.052672 139.538682,124.521541 C139.03507,124.99041 138.348827,125.2492 137.636699,125.239103 L53.1589923,125.239103 C51.6861553,125.231939 50.4940272,124.122002 50.4867257,122.750772 L50.4867257,65.6268021 C50.4940787,64.2556207 51.6862066,63.1457609 53.1589923,63.1386431 L137.636699,63.1386431 C138.348807,63.1285083 139.035046,63.3872617 139.538662,63.8561018 C140.042278,64.3249419 140.320253,64.9638203 140.309415,65.6268021 Z" id="Path" fill="#d3ecef" fill-rule="nonzero"/>
      <path d="M140.309735,65.6268021 L140.309735,115.384915 L50.5669389,115.384915 L50.5669389,65.6268021 C50.5742924,64.2556207 51.7664989,63.1457609 53.2393817,63.1389471 L137.722567,63.1389471 C138.421341,63.1454965 139.088194,63.4122958 139.574192,63.8797595 C140.060191,64.3472231 140.324852,64.9764105 140.309735,65.6268021 L140.309735,65.6268021 Z" id="Path" fill="#2c466d" fill-rule="nonzero"/>
      <polygon id="Path" fill="#fff5f3" fill-rule="nonzero" points="137.33934 66.1882814 53.5364507 66.1882814 53.5364507 112.495337 137.252818 112.495337 137.252818 66.1882814"/>
      <path d="M67.5012297,109.686882 L57.5494298,109.686882 C57.1657995,109.68851 56.7974076,109.536843 56.5261375,109.26558 C56.2548675,108.994316 56.103197,108.625933 56.104825,108.242311 L56.104825,69.8804941 C56.1031823,69.4968232 56.2548322,69.1283811 56.5260912,68.857036 C56.7973501,68.585691 57.1657493,68.4339192 57.5494298,68.435433 L67.5012297,68.435433 C67.8849075,68.4339191 68.2533037,68.5856919 68.5245581,68.8570378 C68.7958125,69.1283836 68.9474559,69.4968259 68.9458056,69.8804941 L68.9458056,108.242311 C68.9474412,108.62593 68.7957772,108.994313 68.5245118,109.265578 C68.2532463,109.536842 67.8848573,109.68851 67.5012297,109.686882 L67.5012297,109.686882 Z" id="Path" fill="#fcddde" fill-rule="nonzero"/>
      <path d="M62.5250835,76.139904 C63.4989851,76.1400095 64.3770399,75.5534156 64.7497657,74.6536814 C65.1224915,73.7539473 64.9164757,72.7182853 64.2277943,72.0296781 C63.5391129,71.341071 62.503409,71.1351474 61.603685,71.5079401 C60.703961,71.8807328 60.1174272,72.7588164 60.1176147,73.7326949 C60.1178866,75.0621263 61.1956206,76.1397441 62.5250835,76.139904 Z" id="Path" fill="#fff5f3" fill-rule="nonzero"/>
      <path d="M66.7786733,79.6714333 L58.2714647,79.6714333 C58.2051591,79.6807903 58.1383105,79.6584448 58.0909608,79.6110962 C58.0436111,79.5637476 58.021265,79.4969006 58.0306223,79.4305965 L58.0306223,78.7887031 C58.0211767,78.7223801 58.0434938,78.6554788 58.0908655,78.6081081 C58.1382373,78.5607375 58.2051402,78.5384209 58.2714647,78.5478663 L66.6985759,78.5478663 C66.7649195,78.5383322 66.8318769,78.5606197 66.8792708,78.6080125 C66.9266647,78.6554053 66.9489527,78.7223611 66.9394184,78.7887031 L66.9394184,79.4306255 C67.0195158,79.5908164 66.8592921,79.6714333 66.7786733,79.6714333 Z" id="Path" fill="#fff5f3" fill-rule="nonzero"/>
      <path d="M66.7786733,83.0416999 L58.2714647,83.0416999 C58.2052045,83.0511908 58.1383406,83.0289486 58.0909694,82.9816583 C58.0435982,82.934368 58.0212428,82.8675433 58.0306223,82.8012686 L58.0306223,82.1588538 C58.021265,82.0925497 58.0436111,82.0257027 58.0909608,81.9783541 C58.1383105,81.9310055 58.2051591,81.90866 58.2714647,81.918017 L66.6985759,81.918017 C66.7649005,81.9085716 66.8318034,81.9308882 66.8791751,81.9782588 C66.9265469,82.0256295 66.948864,82.0925308 66.9394184,82.1588538 L66.9394184,82.8012686 C67.0195158,82.9616044 66.8592921,83.0416999 66.7786733,83.0416999 Z" id="Path" fill="#fff5f3" fill-rule="nonzero"/>
      <path d="M66.7786733,86.4129803 L58.2714647,86.4129803 C58.2051591,86.4223373 58.1383105,86.3999918 58.0909608,86.3526432 C58.0436111,86.3052946 58.021265,86.2384476 58.0306223,86.1721435 L58.0306223,85.5302211 C58.0211767,85.4638981 58.0434938,85.3969968 58.0908655,85.3496262 C58.1382373,85.3022555 58.2051402,85.279939 58.2714647,85.2893843 L66.6985759,85.2893843 C66.7649195,85.2798502 66.8318769,85.3021377 66.8792708,85.3495305 C66.9266647,85.3969233 66.9489527,85.4638791 66.9394184,85.5302211 L66.9394184,86.1721435 C67.0195158,86.3323634 66.8592921,86.4129803 66.7786733,86.4129803 Z" id="Path" fill="#fff5f3" fill-rule="nonzero"/>
      <path d="M66.7786733,89.8638348 L58.2714647,89.8638348 C58.2051591,89.8731918 58.1383105,89.8508463 58.0909608,89.8034977 C58.0436111,89.7561491 58.021265,89.6893021 58.0306223,89.622998 L58.0306223,88.9806121 C58.0212428,88.9143375 58.0435982,88.8475128 58.0909694,88.8002225 C58.1383406,88.7529322 58.2052045,88.73069 58.2714647,88.7401809 L66.6985759,88.7401809 C66.7648524,88.7306139 66.831763,88.7528312 66.8791531,88.8001405 C66.9265433,88.8474497 66.9488738,88.9143212 66.9394184,88.9806121 L66.9394184,89.622998 C67.0195158,89.7031224 66.8592921,89.8638348 66.7786733,89.8638348 Z" id="Path" fill="#fff5f3" fill-rule="nonzero"/>
      <path d="M66.7786733,93.2346228 L58.2714647,93.2346228 C58.2051561,93.2439693 58.1383091,93.2216162 58.0909611,93.1742636 C58.0436131,93.1269111 58.0212675,93.060063 58.0306223,92.993757 L58.0306223,92.3518635 C58.0211767,92.2855405 58.0434938,92.2186393 58.0908655,92.1712686 C58.1382373,92.123898 58.2051402,92.1015814 58.2714647,92.1110268 L66.6985759,92.1110268 C66.7649195,92.1014927 66.8318769,92.1237801 66.8792708,92.171173 C66.9266647,92.2185658 66.9489527,92.2855216 66.9394184,92.3518635 L66.9394184,92.993757 C67.0195158,93.0738814 66.8592921,93.2346228 66.7786733,93.2346228 Z" id="Path" fill="#fff5f3" fill-rule="nonzero"/>
      <path d="M66.7786733,96.6048604 L58.2714647,96.6048604 C58.2051402,96.6143057 58.1382373,96.5919892 58.0908655,96.5446185 C58.0434938,96.4972479 58.0211767,96.4303466 58.0306223,96.3640236 L58.0306223,95.7220142 C58.021265,95.6557102 58.0436111,95.5888632 58.0909608,95.5415146 C58.1383105,95.4941659 58.2051591,95.4718204 58.2714647,95.4811775 L66.6985759,95.4811775 C66.7649005,95.4717321 66.8318034,95.4940487 66.8791751,95.5414193 C66.9265469,95.58879 66.948864,95.6556912 66.9394184,95.7220142 L66.9394184,96.3639077 C67.0195158,96.5247649 66.8592921,96.6048604 66.7786733,96.6048604 Z" id="Path" fill="#fff5f3" fill-rule="nonzero"/>
      <path d="M65.2539846,99.9756483 L59.8767722,99.9756483 C59.8104958,99.9852153 59.7435852,99.962998 59.696195,99.9156887 C59.6488048,99.8683795 59.6264743,99.801508 59.6359298,99.7352171 L59.6359298,99.0928022 C59.6264842,99.0264792 59.6488013,98.9595779 59.696173,98.9122073 C59.7435448,98.8648366 59.8104477,98.8425201 59.8767722,98.8519654 L65.2539846,98.8519654 C65.3203138,98.8425099 65.3872254,98.864822 65.4346043,98.912194 C65.4819832,98.9595661 65.5043038,99.0264735 65.494856,99.0928022 L65.494856,99.7352171 C65.4870631,99.8648042 65.3835886,99.9680896 65.2539846,99.9756483 Z" id="Path" fill="#fff5f3" fill-rule="nonzero"/>
      <polygon id="Path" fill="#32acfc" fill-rule="nonzero" opacity="0.121002907" points="100.534564 103.908263 79.1057834 103.908263 79.1057834 105.111984 100.534564 105.111984"/>
      <polygon id="Path" fill="#32acfc" fill-rule="nonzero" opacity="0.121002907" points="90.7430171 107.118223 79.1057834 107.118223 79.1057834 108.321914 90.7430171 108.321914"/>
      <polygon id="Path" fill="#32acfc" fill-rule="nonzero" opacity="0.121002907" points="126.296569 103.908263 104.868309 103.908263 104.868309 105.111984 126.296569 105.111984"/>
      <polygon id="Path" fill="#32acfc" fill-rule="nonzero" opacity="0.121002907" points="116.505514 107.118223 104.868309 107.118223 104.868309 108.321914 116.505514 108.321914"/>
      <path d="M95.3976731,122.317938 C96.550206,122.317938 97.4846945,121.094288 97.4846945,119.941811 C97.4846945,118.789335 96.550206,118.144544 95.3976731,118.144544 C94.2482301,118.148827 93.3186873,119.081817 93.3186873,120.231241 C93.3186873,121.380665 94.2482301,122.313656 95.3976731,122.317938 L95.3976731,122.317938 Z" id="Path" fill="#8ecedd" fill-rule="nonzero"/>
      <polygon id="Path" fill="#073757" fill-rule="nonzero" points="177.232319 132.412192 144.452186 131.792723 144.452186 134.453032 147.588496 135.072501 177.232319 135.072501"/>
      <path d="M152.699115,120.655816 C152.060869,120.655816 151.1035,120.449326 149.827009,120.036347 C149.22818,120.036347 148.742721,120.521806 148.742721,121.120634 L148.742721,126.271519 L151.924779,126.890988 L172.941814,126.890988 L172.941814,121.740103 C172.941814,121.14136 172.45627,120.656038 171.857527,120.655816 C163.342677,120.655816 156.95654,120.655816 152.699115,120.655816 Z" id="Path" fill="#073757" fill-rule="nonzero"/>
      <g id="Path" fill-rule="nonzero">
        <use fill="#32acfc" xlink:href="#path-xut7gdczcn-1"/>
        <use fill-opacity="0.301136364" fill="#1b262c" xlink:href="#path-xut7gdczcn-1"/>
      </g>
      <g id="Path" fill-rule="nonzero">
        <use fill="#1b262c" xlink:href="#path-xut7gdczcn-2"/>
        <use fill-opacity="0.3" fill="#5f6aff" xlink:href="#path-xut7gdczcn-2"/>
      </g>
      <g id="Path" fill-rule="nonzero">
        <use fill="#32acfc" xlink:href="#path-xut7gdczcn-3"/>
        <use fill-opacity="0.4" fill="#7974ff" xlink:href="#path-xut7gdczcn-3"/>
      </g>
      <line x1="158.275823" y1="38.8767979" x2="169.517173" y2="38.8767979" id="Path" stroke="#bbc1cf" stroke-width="0.619469027" stroke-linejoin="round"/>
      <line x1="105.878066" y1="35.1175811" x2="105.878066" y2="39.3919174" id="Path" stroke="#2c466d" stroke-width="0.619469027" stroke-linejoin="round"/>
      <path d="M102.96077,46.8348068 C102.951649,47.7718465 103.381949,48.6590651 104.123437,49.2320602 C104.864924,49.8050552 105.831989,49.9976711 106.736434,49.7525059 C107.847415,49.4997863 108.715011,48.6323104 108.967885,47.5213643 C109.324667,45.9669177 108.428551,44.398904 106.90815,43.9172625 C106.38297,43.7574653 106.030838,43.2645474 106.049938,42.7159263 L106.049938,40.0557404" id="Path" stroke="#2c466d" stroke-width="0.619469027" stroke-linejoin="round"/>
      <polygon id="Path" stroke="#2c466d" stroke-width="0.619469027" stroke-linejoin="round" points="190.455288 25.5063024 190.455288 35.5463156 96.576677 35.5463156 105.672743 26.3644218"/>
      <polyline id="Path" stroke="#2c466d" stroke-width="0.619469027" stroke-linejoin="round" points="137.165929 35.5462537 137.165929 26.3644218 126.697058 35.5462537 126.697058 26.3644218 116.14208 35.5462537 116.14208 26.3644218 105.672743 35.5462537 105.672743 26.3644218"/>
      <line x1="179.213938" y1="35.5463776" x2="179.213938" y2="25.6779572" id="Path" stroke="#2c466d" stroke-width="0.619469027" stroke-linejoin="round"/>
      <polyline id="Path" stroke="#2c466d" stroke-width="0.619469027" stroke-linejoin="round" points="147.720845 26.3644218 147.720845 35.5462537 158.190181 26.3644218"/>
      <line x1="158.190181" y1="26.3644218" x2="158.190181" y2="35.5462537" id="Path" stroke="#2c466d" stroke-width="0.619469027" stroke-linejoin="round"/>
      <polygon id="Path" stroke="#2c466d" stroke-width="0.619469027" stroke-linejoin="round" points="169.517173 120.741488 158.275823 120.741488 158.275823 16.1527537 163.939597 10.9182404 169.517173 16.1527537"/>
      <line x1="158.275823" y1="19.8508599" x2="169.517173" y2="19.8508599" id="Path" stroke="#2c466d" stroke-width="0.619469027" stroke-linejoin="round"/>
      <line x1="158.275823" y1="47.9726785" x2="169.517173" y2="47.9726785" id="Path" stroke="#2c466d" stroke-width="0.619469027" stroke-linejoin="round"/>
      <line x1="158.275823" y1="56.9831342" x2="169.517173" y2="56.9831342" id="Path" stroke="#2c466d" stroke-width="0.619469027" stroke-linejoin="round"/>
      <line x1="158.275823" y1="66.0793245" x2="169.517173" y2="66.0793245" id="Path" stroke="#2c466d" stroke-width="0.619469027" stroke-linejoin="round"/>
      <line x1="158.275823" y1="75.1754218" x2="169.517173" y2="75.1754218" id="Path" stroke="#2c466d" stroke-width="0.619469027" stroke-linejoin="round"/>
      <line x1="158.275823" y1="84.2714882" x2="169.517173" y2="84.2714882" id="Path" stroke="#2c466d" stroke-width="0.619469027" stroke-linejoin="round"/>
      <line x1="158.275823" y1="93.2813864" x2="169.517173" y2="93.2813864" id="Path" stroke="#2c466d" stroke-width="0.619469027" stroke-linejoin="round"/>
      <line x1="158.275823" y1="102.377979" x2="169.517173" y2="102.377979" id="Path" stroke="#2c466d" stroke-width="0.619469027" stroke-linejoin="round"/>
      <line x1="158.275823" y1="111.47355" x2="169.517173" y2="111.47355" id="Path" stroke="#2c466d" stroke-width="0.619469027" stroke-linejoin="round"/>
      <polyline id="Path" stroke="#2c466d" stroke-width="0.619469027" stroke-linejoin="round" points="113.996827 26.2785944 163.939597 10.9182094 187.709336 25.5920678"/>
      <line x1="158.190181" y1="35.5461608" x2="169.517173" y2="25.8493643" id="Path" stroke="#2c466d" stroke-width="0.619469027" stroke-linejoin="round"/>
      <line x1="169.173894" y1="16.9250457" x2="158.447788" y2="25.5062404" id="Path" stroke="#2c466d" stroke-width="0.619469027" stroke-linejoin="round"/>
      <line x1="178.870752" y1="25.8493643" x2="169.946558" y2="35.3745059" id="Path" stroke="#2c466d" stroke-width="0.619469027" stroke-linejoin="round"/>
      <line x1="179.471451" y1="35.3745059" x2="190.369646" y2="25.8493643" id="Path" stroke="#2c466d" stroke-width="0.619469027" stroke-linejoin="round"/>
      <line x1="147.377659" y1="26.2784705" x2="137.509022" y2="35.1171475" id="Path" stroke="#2c466d" stroke-width="0.619469027" stroke-linejoin="round"/>
      <line x1="169.088314" y1="39.1342183" x2="158.533336" y2="47.6295855" id="Path" stroke="#2c466d" stroke-width="0.619469027" stroke-linejoin="round"/>
      <line x1="169.088314" y1="48.3161121" x2="158.533336" y2="56.6399174" id="Path" stroke="#2c466d" stroke-width="0.619469027" stroke-linejoin="round"/>
      <line x1="169.173894" y1="57.326382" x2="158.533243" y2="65.7361696" id="Path" stroke="#2c466d" stroke-width="0.619469027" stroke-linejoin="round"/>
      <line x1="169.173894" y1="66.5081829" x2="158.533243" y2="74.832236" id="Path" stroke="#2c466d" stroke-width="0.619469027" stroke-linejoin="round"/>
      <line x1="169.173894" y1="75.5187316" x2="158.533243" y2="83.8422581" id="Path" stroke="#2c466d" stroke-width="0.619469027" stroke-linejoin="round"/>
      <line x1="169.173894" y1="84.5289086" x2="158.533243" y2="92.9382006" id="Path" stroke="#2c466d" stroke-width="0.619469027" stroke-linejoin="round"/>
      <line x1="169.173894" y1="93.6250988" x2="158.533243" y2="102.034824" id="Path" stroke="#2c466d" stroke-width="0.619469027" stroke-linejoin="round"/>
      <line x1="169.173894" y1="102.721165" x2="158.533243" y2="111.130457" id="Path" stroke="#2c466d" stroke-width="0.619469027" stroke-linejoin="round"/>
      <line x1="169.173894" y1="111.902904" x2="158.533336" y2="120.226431" id="Path" stroke="#2c466d" stroke-width="0.619469027" stroke-linejoin="round"/>
      <path d="M143.836836,45.4189484 L151.201796,51.2353599 C151.611209,51.6514471 152.163185,51.8967857 152.746381,51.9218864 L169.808137,51.9218864 L169.808137,35.8897493 L142.754531,35.8897493 L143.064265,43.7885059 C143.236137,44.4750324 143.407451,44.9899041 143.836836,45.4189484 Z" id="Path-Copy-2" fill="#58bfff" fill-rule="nonzero"/>
      <g id="Path" fill-rule="nonzero">
        <use fill="#32acfc" xlink:href="#path-xut7gdczcn-4"/>
        <use fill-opacity="0.4" fill="#7974ff" xlink:href="#path-xut7gdczcn-4"/>
      </g>
      <path d="M160.522482,42.7451652 L166.989739,42.7451652 C167.289097,42.7451652 167.531774,42.5024877 167.531774,42.2031298 L167.531774,38.9108997 C167.531774,38.6115418 167.289097,38.3688643 166.989739,38.3688643 L160.522482,38.3688643 C160.223174,38.368984 159.980567,38.6115914 159.980447,38.9108997 L159.980447,42.2030059 C159.980447,42.5023626 160.223126,42.7450455 160.522482,42.7451652 Z" id="Path" fill="#ffffff00" fill-rule="nonzero" opacity="0.868958939"/>
      <path d="M150.760642,42.7451652 L157.227898,42.7451652 C157.527207,42.7450455 157.769814,42.5024381 157.769934,42.2031298 L157.769934,38.9108997 C157.769814,38.6115914 157.527207,38.368984 157.227898,38.3688643 L150.760642,38.3688643 C150.461333,38.368984 150.218726,38.6115914 150.218606,38.9108997 L150.218606,42.2030059 C150.218606,42.5023626 150.461285,42.7450455 150.760642,42.7451652 Z" id="Path" fill="#ffffff00" fill-rule="nonzero" opacity="0.868958939"/>
      <g id="Path" fill-rule="nonzero">
        <use fill="#1b262c" xlink:href="#path-xut7gdczcn-5"/>
        <use fill-opacity="0.3" fill="#5f6aff" xlink:href="#path-xut7gdczcn-5"/>
      </g>
      <path d="M105.920877,41.8228687 C107.289371,41.8228687 108.398779,40.713511 108.398779,39.3450178 C108.398779,37.9765246 107.289421,36.8671165 105.920928,36.8671165 C104.552435,36.8671165 103.443027,37.9764742 103.443027,39.3449674 C103.443124,40.7134145 104.55243,41.8227435 105.920877,41.8228687 L105.920877,41.8228687 Z" id="Path" fill="#32acfc" fill-rule="nonzero"/>
      <path d="M120.973852,135.412771 C120.973852,135.412771 119.765887,121.381797 129.274737,118.222505 C138.783586,115.063213 122.057922,135.412771 122.057922,135.412771 L120.973852,135.412771 Z" id="Path" fill="#58bfff" fill-rule="nonzero"/>
      <path d="M123.420754,135.412771 C123.420754,135.412771 128.31456,125.687107 134.137569,126.306576 C139.960577,126.926045 125.0004,135.412771 125.0004,135.412771 L123.420754,135.412771 Z" id="Path" fill="#58bfff" fill-rule="nonzero"/>
      <path d="M121.31456,135.505691 C121.283586,135.505691 121.283586,135.505691 121.31456,135.505691 C121.221639,135.474718 121.190666,135.443744 121.221639,135.381797 C124.040223,126.678258 127.230489,121.31985 131.535799,117.912771 C131.566772,117.881797 131.628719,117.881797 131.659692,117.943744 C131.690666,117.974718 131.690666,118.036665 131.628719,118.067638 C127.323409,121.412771 124.164117,126.771178 121.376507,135.443744 C121.376507,135.474718 121.345533,135.505691 121.31456,135.505691 Z" id="Path" fill="#ffffff00" fill-rule="nonzero"/>
      <path d="M124.071197,135.505691 C124.040223,135.505691 124.040223,135.505691 124.00925,135.474718 C123.978276,135.443744 123.947303,135.381797 123.978276,135.350824 C128.965002,128.815426 135.066772,126.585337 135.128719,126.554364 C135.190666,126.52339 135.221639,126.554364 135.252613,126.616311 C135.283586,126.678258 135.252613,126.709231 135.190666,126.740204 C135.128719,126.771178 129.088896,129.001266 124.133144,135.474718 C124.133144,135.505691 124.10217,135.505691 124.071197,135.505691 Z" id="Path" fill="#ffffff00" fill-rule="nonzero"/>
      <path d="M97.8551866,87.3992936 C97.9534006,86.6194783 98.3672588,85.9133005 99.0010483,85.4440778 C99.6188578,84.993361 100.391522,84.8056142 101.148646,84.9222412 C101.905769,85.0388681 102.585163,85.4502893 103.036999,86.0657737 C103.498373,86.7036217 103.678327,87.5010404 103.535298,88.2738576 C103.431965,89.0334112 103.02133,89.7180569 102.398472,90.1692712 C101.78081,90.6204013 101.008032,90.8084039 100.250783,90.6917641 C99.4935328,90.5751243 98.8141019,90.1634369 98.3625218,89.5476106 C97.9058107,88.930367 97.7225302,88.1542632 97.8551866,87.3992936 Z M104.837679,77.1463534 C105.273332,76.9927291 105.699807,76.8144709 106.115017,76.61245 C106.472579,76.4386673 106.805382,76.2184618 107.104715,75.9575974 C107.384732,75.7120001 107.617303,75.4175948 107.79098,75.0888721 C107.977516,74.7192938 108.10141,74.3216064 108.157662,73.9118643 C108.260279,73.3740394 108.161819,72.8174491 107.880801,72.3467787 C107.563916,71.8737604 107.047736,71.5700324 106.47839,71.5215781 C105.752991,71.3580254 104.994785,71.5890706 104.485938,72.1287304 C103.988642,72.6751728 103.669067,73.3584248 103.569164,74.0887941 C103.529764,74.3219212 103.508287,74.5576968 103.50492,74.7940717 C103.505418,74.9875149 103.510338,75.1862189 103.519682,75.3901836 L100.440099,74.9160117 C100.224761,74.674314 100.055483,74.3956184 99.9405539,74.0935712 C99.8296364,73.7614257 99.8058333,73.406604 99.871401,73.0627428 C99.9622493,72.4449723 100.233088,71.8672246 100.650439,71.400912 C101.091594,70.9129211 101.632039,70.5238441 102.235906,70.2595025 C102.924588,69.9582796 103.657041,69.7679088 104.405829,69.6955211 C105.258678,69.6078369 106.119438,69.6327046 106.965734,69.7694777 C108.859021,70.0608221 110.250191,70.7268449 111.139243,71.7675459 C112.025297,72.7953726 112.392072,74.1689063 112.135558,75.4986415 C112.04771,76.1466568 111.830763,76.7707219 111.497423,77.3342882 C111.189113,77.8381304 110.798632,78.2873985 110.341992,78.6636679 C109.880179,79.0432379 109.372622,79.3640887 108.831049,79.6188057 C108.279216,79.8797749 107.712186,80.1076781 107.132996,80.3012948 C106.571448,80.4993146 106.05222,80.6883464 105.575311,80.8683901 C105.136057,81.0301004 104.71438,81.2356071 104.31672,81.4817704 C103.97693,81.6908249 103.672651,81.9522056 103.415241,82.2561567 C103.173738,82.5512036 103.018042,82.9063885 102.965036,83.2831988 C102.947468,83.3924145 102.935417,83.5024379 102.928929,83.6128544 C102.923345,83.7134213 102.923167,83.8150144 102.927507,83.9169613 L101.672081,83.7234355 C101.326451,83.3304588 101.044424,82.8863562 100.836127,82.4070778 C100.637969,81.9167371 100.583408,81.3806095 100.678755,80.8607114 C100.802684,80.037135 101.230125,79.2888526 101.87794,78.7614039 C102.77164,78.0695121 103.770842,77.5242745 104.837679,77.1463534 L104.837679,77.1463534 Z" id="Shape-Copy" fill="#ffffff00" fill-rule="nonzero" transform="translate(105.014337, 80.184902) rotate(9.000000) translate(-105.014337, -80.184902) "/>
      <g id="Group" transform="translate(63.339944, 45.949639)" fill-rule="nonzero">
        <g id="Rectangle-Copy-8" transform="translate(33.475439, 30.131709) rotate(9.000000) translate(-33.475439, -30.131709) ">
          <use fill="#5f6aff" xlink:href="#path-xut7gdczcn-6"/>
          <use fill-opacity="0.1" fill="#4e60ff" xlink:href="#path-xut7gdczcn-6"/>
        </g>
        <path d="M37.8318631,-23.9289442 L42.093062,-17.8922458 C42.4373024,-17.4045718 42.6282318,-16.8252896 42.6414255,-16.2285037 L43.9165701,41.4497434 C43.924708,41.8178433 43.6329012,42.1228443 43.2648013,42.1309822 C43.0347783,42.1360675 42.8183902,42.022185 42.6923438,41.8297044 L36.9306559,33.0312536 C36.7172976,32.7054424 36.6037061,32.3244269 36.6038235,31.9349726 L36.6205512,-23.5446898 C36.6206622,-23.9128796 36.919229,-24.2112664 37.2874189,-24.2111554 C37.5039633,-24.2110901 37.7069855,-24.1058541 37.8318631,-23.9289442 Z" id="Rectangle-Copy-6" fill="#4e60ff" transform="translate(40.285841, 9.066847) scale(-1, 1) rotate(-279.000000) translate(-40.285841, -9.066847) "/>
        <path d="M10.9541856,11.7170281 L68.6992594,11.7170281 C69.2298926,11.7170281 69.6600559,12.1471913 69.6600559,12.6778246 L69.6600559,55.7562317 C69.6600559,56.2868649 69.2298926,56.7170281 68.6992594,56.7170281 L10.9541856,56.7170281 C10.4235524,56.7170281 9.9933892,56.2868649 9.9933892,55.7562317 L9.9933892,12.6778246 C9.9933892,12.1471913 10.4235524,11.7170281 10.9541856,11.7170281 Z" id="Mask" fill="#5f84ff" transform="translate(39.826723, 34.217028) rotate(9.000000) translate(-39.826723, -34.217028) "/>
        <path d="M61.6603871,11.0503875 L16.1693871,56.0493875 L10.9541836,56.0503875 C10.4235504,56.0503875 9.99338714,55.6202243 9.99338714,55.0895911 L9.99338714,12.0113484 C9.99338714,11.4807151 10.4235504,11.0505519 10.9541836,11.0505519 L61.6603871,11.0503875 Z" id="Combined-Shape" fill="#79a0fb" transform="translate(35.826887, 33.550388) rotate(9.000000) translate(-35.826887, -33.550388) "/>
        <path d="M39.8616014,30.8222124 C40.3213546,30.5749569 40.7103766,30.3277014 41.064033,30.0804459 C41.4176893,29.8331904 41.7006144,29.5506128 41.9481738,29.2680351 C42.1957333,28.9854574 42.3725615,28.6322352 42.514024,28.2790131 C42.6554865,27.925791 42.6908522,27.5019245 42.6908522,27.0074135 C42.6908522,26.3716137 42.514024,25.8771027 42.1603676,25.4532362 C41.8067113,25.0293696 41.2762268,24.8174363 40.6042797,24.8174363 C39.7201388,24.8174363 39.0835574,25.1353363 38.6945354,25.7358139 C38.2701478,26.3716137 38.057954,27.0780579 38.057954,27.8551466 C38.057954,28.1377243 38.057954,28.3849798 38.0933196,28.596913 C38.1286852,28.8088463 38.1640509,28.9854574 38.1994165,29.1973906 L35.0165094,29.1973906 C34.7335843,28.9854574 34.5213905,28.7028797 34.3799279,28.4556242 C34.2384654,28.1730465 34.1323685,27.8198244 34.1323685,27.43128 C34.1323685,26.760158 34.3091967,26.1596804 34.662853,25.6298472 C35.0165094,25.100014 35.4762626,24.6055031 36.0774784,24.2169587 C36.6786942,23.8284144 37.3860069,23.5105145 38.1994165,23.2985812 C39.0128261,23.086648 39.8616014,22.9806813 40.8164735,22.9806813 C42.7969491,22.9806813 44.2823057,23.4398701 45.3432748,24.3582476 C46.4042438,25.2766251 46.9347284,26.4775803 46.9347284,27.9964354 C46.9347284,28.7382019 46.8286315,29.4093239 46.581072,29.9744793 C46.3335126,30.5396347 46.0152219,31.0694679 45.6261999,31.4933344 C45.2371779,31.9525232 44.7774246,32.3410675 44.2469401,32.6942896 C43.7164556,33.0475117 43.1859711,33.3654116 42.6201209,33.6479893 C42.0896364,33.930567 41.5945175,34.2131447 41.1347642,34.4604002 C40.675011,34.7076557 40.285989,34.9902334 39.9676983,35.2728111 C39.6494076,35.5553888 39.3664825,35.8732887 39.1896543,36.1911886 C38.9774605,36.5090885 38.9067292,36.8976328 38.9067292,37.3214994 C38.9067292,37.4627882 38.9067292,37.5687549 38.9067292,37.6747215 C38.9067292,37.7806881 38.9420949,37.8866548 38.9420949,37.9926214 L37.6335664,37.9926214 C37.2091787,37.6040771 36.8555224,37.2155327 36.5725973,36.7916662 C36.2896722,36.3677997 36.1835753,35.8379665 36.1835753,35.2374889 C36.1835753,34.3544336 36.4665004,33.6126671 37.0677162,32.9062229 C37.7042976,32.2351009 38.6238041,31.5286566 39.8616014,30.8222124 Z M34.4152936,42.3372535 C34.4152936,41.4541982 34.6982187,40.7477539 35.2640688,40.1825986 C35.829919,39.6174432 36.5372317,39.2995433 37.3506413,39.2995433 C38.1640509,39.2995433 38.8713636,39.582121 39.4372137,40.1825986 C40.0030639,40.7477539 40.285989,41.4895204 40.285989,42.3372535 C40.285989,43.1496644 40.0030639,43.8561086 39.4372137,44.4565862 C38.8713636,45.0217416 38.1640509,45.3396415 37.3506413,45.3396415 C36.5372317,45.3396415 35.829919,45.0570638 35.2640688,44.4565862 C34.6982187,43.8561086 34.4152936,43.1496644 34.4152936,42.3372535 Z" id="Shape" fill="#ffffff00" opacity="0.900000036" transform="translate(40.533548, 34.160161) rotate(9.000000) translate(-40.533548, -34.160161) "/>
      </g>
      <path d="M89.9022099,51.1659134 L105.000291,49.1339904 C105.865678,48.8734941 106.769024,49.1020732 107.516112,49.7705838 L121.22489,57.1496996" id="Path" stroke="#2c466d" stroke-width="0.619469027" stroke-linecap="round" stroke-linejoin="round" transform="translate(105.563550, 53.089341) rotate(-3.000000) translate(-105.563550, -53.089341) "/>
    </g>
  </g>
</svg>