<svg width="210px" height="140px" viewBox="0 0 210 140" version="1.1" xmlns="http://www.w3.org/2000/svg" xmlns:xlink="http://www.w3.org/1999/xlink" transform="rotate(0) scale(1, 1)">
  <defs>
    <path d="M41.9397863,28.1148368 L63.954857,28.1148368 C64.2619161,28.1148368 64.3732631,28.146808 64.4855193,28.2068433 C64.5977755,28.2668786 64.6858749,28.3549779 64.7459101,28.4672341 C64.8059454,28.5794903 64.8379166,28.6908374 64.8379166,28.9978964 L64.8379166,43.7608112 C64.8379166,44.0678703 64.8059454,44.1792173 64.7459101,44.2914735 C64.6858749,44.4037297 64.5977755,44.4918291 64.4855193,44.5518643 C64.3732631,44.6118996 64.2619161,44.6438709 63.954857,44.6438709 L41.9397863,44.6438709 C41.6327272,44.6438709 41.5213801,44.6118996 41.4091239,44.5518643 C41.2968677,44.4918291 41.2087684,44.4037297 41.1487331,44.2914735 C41.0886978,44.1792173 41.0567266,44.0678703 41.0567266,43.7608112 L41.0567266,28.9978964 C41.0567266,28.6908374 41.0886978,28.5794903 41.1487331,28.4672341 C41.2087684,28.3549779 41.2968677,28.2668786 41.4091239,28.2068433 C41.5213801,28.146808 41.6327272,28.1148368 41.9397863,28.1148368 Z" id="path-8fcsc59uf6-1"/>
    <ellipse id="path-8fcsc59uf6-2" cx="52.9469933" cy="36.3798107" rx="6.31648279" ry="6.38209646"/>
    <path d="M183.00712,61.0680072 C181.786877,60.723327 180.512736,60.9178788 179.333141,61.5329723 C177.36876,62.557217 175.037532,62.5555084 173.072814,61.5318333 C171.893893,60.9175371 170.620538,60.7235548 169.400969,61.0680072 C166.164018,61.9821045 164.532798,66.3407257 165.75742,70.8033432 C166.982155,75.2659607 171.986307,80.1967328 174.45857,79.4986016 C175.101199,79.317149 175.696218,78.7198248 176.203988,77.8577826 C176.711646,78.7199387 177.306889,79.317149 177.949294,79.4986016 C180.42167,80.1967328 185.425934,75.2659607 186.650444,70.8033432 C187.875178,66.3406118 186.243958,61.9819906 183.00712,61.0680072 Z" id="path-8fcsc59uf6-3"/>
    <path d="M4.33821985,19.1279459 L2.1691564,22.5915177 L9.29611907e-05,19.1279459 L9.29611907e-05,1.71225691 C9.29611907e-05,0.766628323 0.770090497,4.74549111e-14 1.71987497,4.74549111e-14 L2.6185308,4.74549111e-14 C3.56831527,4.74549111e-14 4.33831281,0.766628323 4.33831281,1.71225691 L4.33821985,19.1279459 L4.33821985,19.1279459 Z" id="path-8fcsc59uf6-4"/>
    <polygon id="path-8fcsc59uf6-5" points="115.62769 62.003199 94.7761608 62.003199 97.7789556 46.1786576 112.624895 46.1786576"/>
    <rect id="path-8fcsc59uf6-6" x="82.4917958" y="17.6842923" width="45.4192845" height="24.6513533"/>
    <rect id="path-8fcsc59uf6-7" x="80.0234007" y="44.7741728" width="50.3562696" height="9.52505011"/>
  </defs>
  <g id="MIP-Illustrations" stroke="none" stroke-width="1" fill="none" fill-rule="evenodd">
    <g id="Briefcase-Illo">
      <rect id="Rectangle" fill="#ffffff00" x="0" y="0" width="210" height="140"/>
      <ellipse id="Oval" fill="#bee9ea" fill-rule="nonzero" cx="108" cy="134.333333" rx="86.6666667" ry="2"/>
      <path d="M53.5168358,133.686229 C53.5168358,133.686229 54.806663,118.208302 44.5686592,114.701584 C34.3306554,111.194866 52.3479298,133.686229 52.3479298,133.686229 L53.5168358,133.686229 Z" id="Path" fill="#a8a848" fill-rule="nonzero"/>
      <path d="M50.8968742,133.686229 C50.8968742,133.686229 45.6166439,122.96454 39.3690431,123.649761 C33.1214423,124.334981 49.2039759,133.686229 49.2039759,133.686229 L50.8968742,133.686229 Z" id="Path" fill="#a8a848" fill-rule="nonzero"/>
      <path d="M53.1540719,133.80715 C53.1137648,133.80715 53.0331506,133.766843 53.0331506,133.726536 C50.0101179,124.173753 46.6243214,118.248609 41.9890047,114.540356 C41.9486976,114.500048 41.9083905,114.419434 41.9890047,114.379127 C42.0293118,114.33882 42.109926,114.298513 42.1502331,114.379127 C46.8258569,118.127688 50.2519606,124.093139 53.2749932,133.686229 C53.3153003,133.726536 53.2749932,133.766843 53.1540719,133.80715 C53.194379,133.80715 53.194379,133.80715 53.1540719,133.80715 Z" id="Path" fill="#ffffff00" fill-rule="nonzero"/>
      <path d="M50.2116535,133.80715 C50.1713464,133.80715 50.1310392,133.80715 50.0907321,133.766843 C44.7701947,126.632486 38.2807513,124.133446 38.2001371,124.133446 C38.1195229,124.093139 38.1195229,124.052832 38.1195229,123.972217 C38.15983,123.891603 38.2001371,123.851296 38.2807513,123.891603 C38.3613655,123.93191 44.9314231,126.390643 50.2922677,133.605615 C50.3325748,133.645922 50.3325748,133.726536 50.2519606,133.766843 C50.2519606,133.80715 50.2116535,133.80715 50.2116535,133.80715 Z" id="Path" fill="#ffffff00" fill-rule="nonzero"/>
      <path d="M153.800905,133.887764 C153.800905,133.887764 152.228928,115.628647 164.603208,111.517323 C176.977488,107.405999 155.211653,133.887764 155.211653,133.887764 L153.800905,133.887764 Z" id="Path" fill="#a8a848" fill-rule="nonzero"/>
      <path d="M156.985166,133.887764 C156.985166,133.887764 163.353688,121.231334 170.931423,122.037477 C178.509158,122.843619 159.040828,133.887764 159.040828,133.887764 L156.985166,133.887764 Z" id="Path" fill="#a8a848" fill-rule="nonzero"/>
      <path d="M154.244283,134.008686 C154.203976,134.008686 154.203976,134.008686 154.244283,134.008686 C154.123362,133.968379 154.083055,133.928072 154.123362,133.847457 C157.791308,122.521162 161.942939,115.548033 167.545627,111.114252 C167.585934,111.073945 167.666548,111.073945 167.706855,111.154559 C167.747162,111.194866 167.747162,111.27548 167.666548,111.315787 C162.063861,115.668954 157.952536,122.642083 154.324897,133.928072 C154.324897,133.968379 154.28459,134.008686 154.244283,134.008686 Z" id="Path" fill="#ffffff00" fill-rule="nonzero"/>
      <path d="M157.831615,134.008686 C157.791308,134.008686 157.791308,134.008686 157.751001,133.968379 C157.710694,133.928072 157.670387,133.847457 157.710694,133.80715 C164.200137,125.302352 172.140636,122.40024 172.22125,122.359933 C172.301865,122.319626 172.342172,122.359933 172.382479,122.440548 C172.422786,122.521162 172.382479,122.561469 172.301865,122.601776 C172.22125,122.642083 164.361366,125.544194 157.912229,133.968379 C157.912229,134.008686 157.871922,134.008686 157.831615,134.008686 Z" id="Path" fill="#ffffff00" fill-rule="nonzero"/>
      <path d="M65.2357952,89.7803519 L72.5696664,81.4353254 L72.5696664,81.4353254 C72.9558926,80.9953481 73.4869537,80.7020299 74.0662931,80.7020299 L134.269308,80.7020299 C134.800369,80.7020299 135.283152,80.8975754 135.6211,81.2397799 L144.436084,89.537252 C145.084465,90.1475677 145.115323,91.167943 144.505007,91.816324 C144.200995,92.1392973 143.777355,92.3227616 143.333807,92.3235313 L66.4496582,92.4569555 C65.5592196,92.4585008 64.8361239,91.7379104 64.8345786,90.8474718 C64.8338971,90.4547736 64.9765618,90.075327 65.2357952,89.7803519 Z" id="Path" fill="#bbe1fa" fill-rule="nonzero"/>
      <path d="M94.8434153,86.590531 L86.6602687,86.590531 C86.4376587,86.590531 86.2571977,86.41007 86.2571977,86.18746 L86.2571977,85.9040027 C86.2571977,85.7160808 86.3870587,85.5530937 86.5702323,85.5111164 L95.4804645,83.4691882 C95.6874369,83.421757 95.8936718,83.5510907 95.941103,83.7580631 C95.9463429,83.7809285 95.9494793,83.8042254 95.9504727,83.8276624 L95.9666329,84.208904 C95.9688843,84.2620178 95.9606066,84.3150523 95.9422764,84.3649537 L95.2217682,86.3264395 C95.1634922,86.485088 95.0124283,86.590531 94.8434153,86.590531 Z" id="Path-Copy" fill="#e43354" fill-rule="nonzero"/>
      <path d="M94.7150384,86.18746 L86.58967,86.18746 C86.3670601,86.18746 86.186599,86.006999 86.186599,85.784389 C86.186599,85.70407 86.210595,85.6255824 86.2555088,85.5589949 L87.6428915,83.5021112 C87.717821,83.3910235 87.8430567,83.3244344 87.9770527,83.3244344 L95.4087297,83.3244344 C95.6313397,83.3244344 95.8118007,83.5048954 95.8118007,83.7275054 C95.8118007,83.7713049 95.8046619,83.8148116 95.7906649,83.8563144 L95.0969736,85.913198 C95.0416973,86.0770992 94.8880098,86.18746 94.7150384,86.18746 Z" id="Path" fill="#ee5a7100" fill-rule="nonzero"/>
      <path d="M122.655315,86.590531 L114.472169,86.590531 C114.249559,86.590531 114.069098,86.41007 114.069098,86.18746 L114.069098,85.9040027 C114.069098,85.7160808 114.198959,85.5530937 114.382132,85.5111164 L123.292365,83.4691882 C123.499337,83.421757 123.705572,83.5510907 123.753003,83.7580631 C123.758243,83.7809285 123.761379,83.8042254 123.762373,83.8276624 L123.778533,84.208904 C123.780784,84.2620178 123.772507,84.3150523 123.754177,84.3649537 L123.033668,86.3264395 C122.975392,86.485088 122.824329,86.590531 122.655315,86.590531 Z" id="Path-Copy-2" fill="#e43354" fill-rule="nonzero" transform="translate(118.925521, 84.978247) scale(-1, 1) translate(-118.925521, -84.978247) "/>
      <path d="M122.931367,86.1459315 L114.810892,86.1459315 C114.588282,86.1459315 114.407821,85.9654704 114.407821,85.7428605 C114.407821,85.6616083 114.432377,85.5822529 114.478269,85.5152019 L115.857649,83.4998468 C115.932784,83.3900701 116.057244,83.3244344 116.190271,83.3244344 L123.621057,83.3244344 C123.843666,83.3244344 124.024128,83.5048954 124.024128,83.7275054 C124.024128,83.7719068 124.016791,83.8160032 124.002415,83.8580128 L123.312725,85.8733679 C123.256933,86.0363974 123.103679,86.1459315 122.931367,86.1459315 Z" id="Path-Copy-3" fill="#ee5a7100" fill-rule="nonzero" transform="translate(119.115795, 84.735183) scale(-1, 1) translate(-119.115795, -84.735183) "/>
      <path d="M70.8799266,134.959053 L139.966145,134.959053 C140.835154,134.959053 141.51105,134.342844 141.607606,133.48963 L145.856095,91.7157795 C145.952652,90.6729632 145.131921,89.7723492 144.069799,89.7723492 L66.29349,89.7723492 C65.2313679,89.7723492 64.3623588,90.6729632 64.5071937,91.7157795 L69.2384651,133.48963 C69.3350216,134.295443 70.0591958,134.959053 70.8799266,134.959053 Z" id="Path" fill="#32acfc" fill-rule="nonzero"/>
      <path d="M70.9282049,134.959053 L139.966145,134.959053 C140.835154,134.959053 141.559328,134.295455 141.655885,133.489658 L145.904373,91.8587892 C146.00093,90.7685926 145.131921,89.8205956 144.02152,89.8205956 L66.3900466,89.8205956 C65.2796461,89.8205956 64.4106371,90.7685926 64.5071937,91.8587892 L69.2384651,133.489658 C69.3350216,134.295455 70.0591958,134.959053 70.9282049,134.959053 Z" id="Path" fill="#32acfc" fill-rule="nonzero" opacity="0.6"/>
      <path d="M67.0176642,112.546277 L105.157505,119.120194 L143.780129,112.546277 L145.856095,91.791481 C145.952652,90.7114803 145.083643,89.7723492 143.973242,89.7723492 L66.3900466,89.7723492 C65.2796461,89.7723492 64.4106371,90.7114803 64.5071937,91.791481 L67.0176642,112.546277 Z" id="Path" fill="#96d7ff" fill-rule="nonzero" opacity="0.8"/>
      <path d="M117.036218,72.5636596 C119.50453,72.5636596 121.529708,74.5874994 121.529708,77.0554586 L121.529708,84.5336474 L117.660226,84.5336474 L117.660226,77.0554586 C117.660226,76.7251279 117.368047,76.4331414 117.036218,76.4331414 L93.1384696,76.4331414 C92.8066412,76.4331414 92.5144617,76.7251279 92.5144617,77.0554586 L92.5144617,84.5336474 L88.6449799,84.5336474 L88.6449799,77.0554586 C88.6449799,74.5874994 90.6701578,72.5636596 93.1384696,72.5636596 L117.036218,72.5636596 Z" id="Path" fill="#38598b" fill-rule="nonzero"/>
      <rect id="Rectangle" fill="#000a1a" fill-rule="nonzero" x="91.6716627" y="77.5291398" width="2.67376389" height="7.69400337"/>
      <rect id="Rectangle" fill="#000a1a" fill-rule="nonzero" x="115.974096" y="77.5291398" width="2.00709722" height="7.69400337"/>
      <path d="M117.036218,74.0592974 C119.47006,74.0592974 121.529708,75.9522399 121.529708,78.3456852 L121.529708,85.2231431 L117.660226,85.2231431 L117.660226,78.3456852 C117.660226,78.16563 117.402516,77.9287792 117.036218,77.9287792 L93.1384696,77.9287792 C92.7721712,77.9287792 92.5144617,78.16563 92.5144617,78.3456852 L92.5144617,85.2231431 L88.6449799,85.2231431 L88.6449799,78.3456852 C88.6449799,75.9522399 90.7046278,74.0592974 93.1384696,74.0592974 L117.036218,74.0592974 Z" id="Path" fill="#2c466d" fill-rule="nonzero"/>
      <path d="M109.801178,123.800093 L100.558756,123.800093 C100.300587,123.800093 100.042419,123.607108 99.9907856,123.317629 L99.0097464,116.659629 C98.9581128,116.321904 99.216281,116.032426 99.5777165,116.032426 L110.83385,116.032426 C111.195286,116.032426 111.453454,116.321904 111.401821,116.659629 L110.420781,123.317629 C110.317514,123.607108 110.11098,123.800093 109.801178,123.800093 Z" id="Path" fill="#bf003300" fill-rule="nonzero" opacity="0.6"/>
      <path d="M109.586894,122.64218 L100.82139,122.64218 C100.305772,122.64218 99.8417155,122.28671 99.7901537,121.778896 L98.9136033,115.735907 C98.8104797,115.12653 99.3260976,114.567935 99.9448391,114.567935 L110.515006,114.567935 C111.133748,114.567935 111.649366,115.12653 111.546242,115.735907 L110.669692,121.778896 C110.515006,122.235929 110.102512,122.64218 109.586894,122.64218 Z" id="Path" fill="#fff5f3" fill-rule="nonzero"/>
      <path d="M57.2809676,32.9082575 L46.1100187,32.9082575 C45.8246898,32.9082575 45.593385,32.6769527 45.593385,32.3916238 L45.593385,24.7368876 C45.593385,24.3564491 45.9017914,24.0480427 46.2822299,24.0480427 L57.1087564,24.0480427 C57.4891949,24.0480427 57.7976013,24.3564491 57.7976013,24.7368876 L57.7976013,32.3916238 C57.7976013,32.6769527 57.5662965,32.9082575 57.2809676,32.9082575 Z M47.6447418,30.3903791 L55.7463237,30.3903791 C55.7938785,30.3903791 55.8324293,30.3518283 55.8324293,30.3042735 L55.8324293,26.1214815 C55.8324293,26.0739267 55.7938785,26.0353759 55.7463237,26.0353759 L47.6447418,26.0353759 C47.5971869,26.0353759 47.5586361,26.0739267 47.5586361,26.1214815 L47.5586361,30.3042735 C47.5586361,30.3518283 47.5971869,30.3903791 47.6447418,30.3903791 Z" id="Shape" fill="#2c466d" fill-rule="nonzero" transform="translate(51.695493, 28.478150) rotate(-9.000000) translate(-51.695493, -28.478150) "/>
      <g id="Rectangle" fill-rule="nonzero" transform="translate(52.947322, 36.379354) rotate(-9.000000) translate(-52.947322, -36.379354) ">
        <use fill="#d3ecef" xlink:href="#path-8fcsc59uf6-1"/>
        <use fill-opacity="0.2" fill="#8ecedd" xlink:href="#path-8fcsc59uf6-1"/>
      </g>
      <g id="Oval" fill-rule="nonzero" transform="translate(52.946993, 36.379811) rotate(-9.000000) translate(-52.946993, -36.379811) ">
        <use fill="#bbe1fa" xlink:href="#path-8fcsc59uf6-2"/>
        <use fill-opacity="0.9" fill="#ffffff00" xlink:href="#path-8fcsc59uf6-2"/>
      </g>
      <polygon id="Path" fill="#073757" fill-rule="nonzero" transform="translate(52.946956, 36.379574) rotate(-9.000000) translate(-52.946956, -36.379574) " points="56.8537062 35.0640191 54.2472556 35.0640191 54.2472556 32.4306535 51.6466559 32.4306535 51.6466559 35.0640191 49.0402053 35.0640191 49.0402053 37.6950484 51.6466559 37.6950484 51.6466559 40.328494 54.2472556 40.328494 54.2472556 37.6950484 56.8537062 37.6950484"/>
      <polygon id="Path" fill="#8ecedd" fill-rule="nonzero" transform="translate(152.325054, 42.341742) rotate(34.000000) translate(-152.325054, -42.341742) " points="156.212114 46.15428 151.648692 47.6918401 148.437994 38.5292771 153.001489 36.9916446"/>
      <path d="M170.496867,44.9153709 C170.496867,44.9153709 159.761554,41.9624414 152.518076,44.492158 L150.583488,38.9712685 C157.826966,36.4415519 164.377359,27.4516638 164.377359,27.4516638 L170.496867,44.9153709 Z" id="Path" fill="#d3ecef" fill-rule="nonzero" transform="translate(160.540178, 36.183517) rotate(34.000000) translate(-160.540178, -36.183517) "/>
      <path d="M163.386181,30.6936594 C163.386181,30.6936594 162.566493,31.8182193 161.187505,33.3830858 L166.107156,47.4227013 C168.162542,47.7881869 169.505762,48.1573665 169.505762,48.1573665 L163.386181,30.6936594 Z" id="Path" fill="#2c466d" fill-rule="nonzero" transform="translate(165.346634, 39.425513) rotate(34.000000) translate(-165.346634, -39.425513) "/>
      <polygon id="Path" fill="#2c466d" fill-rule="nonzero" transform="translate(148.107504, 35.228029) rotate(34.000000) translate(-148.107504, -35.228029) " points="147.198287 38.6003323 150.926858 37.3766147 148.99227 31.8557252 145.288149 33.1493385"/>
      <polygon id="Rectangle" fill="#32acfc" fill-rule="nonzero" points="167.895417 41.3000084 168.171399 39.8775536 173.274907 40.8740716 172.998926 42.2965263"/>
      <polygon id="Rectangle" fill="#32acfc" fill-rule="nonzero" points="168.649084 37.8952683 167.870028 36.6715497 171.412159 34.4225992 172.191214 35.6463178"/>
      <polygon id="Rectangle" fill="#32acfc" fill-rule="nonzero" points="168.94211 47.4998127 166.107244 44.399736 167.17702 43.4229735 170.011885 46.5230503"/>
      <path d="M161.707631,79.1952796 C158.797441,79.1952796 156.43814,81.5884491 156.43814,84.5406703 C156.43814,87.4927775 158.797328,89.8860609 161.707631,89.8860609 L188.82402,89.8860609 L188.82402,87.7238932 C188.172183,86.8347414 187.785011,85.7341796 187.785011,84.5408981 C187.785011,83.3475027 188.172183,82.2470548 188.82402,81.3579029 L188.82402,79.1952796 L161.707631,79.1952796 Z" id="Path" fill="#2c466d" fill-rule="nonzero" transform="translate(172.631080, 84.540670) rotate(14.000000) translate(-172.631080, -84.540670) "/>
      <path d="M159.038012,81.1308766 C159.460617,79.4359003 161.157843,78.3995155 162.828752,78.8161199 L189.112947,85.3696233 C188.406689,85.9571142 187.843244,86.7314134 187.507872,87.643278 L187.229867,88.7375035 C187.089274,89.6993309 187.215314,90.648134 187.555172,91.501015 L161.298324,84.9543302 C159.627306,84.5376986 158.615407,82.8258528 159.038012,81.1308766 Z" id="Path" fill="#d3ecef" fill-rule="nonzero"/>
      <rect id="Rectangle" fill="#2c466d" fill-rule="nonzero" transform="translate(178.246041, 62.040713) rotate(14.000000) translate(-178.246041, -62.040713) " x="177.305734" y="57.5242747" width="1.88061358" height="9.03287641"/>
      <g id="Path" fill-rule="nonzero" transform="translate(176.203963, 70.231865) rotate(14.000000) translate(-176.203963, -70.231865) ">
        <use fill="#32acfc" xlink:href="#path-8fcsc59uf6-3"/>
        <use fill-opacity="0.22" fill="#bbe1fa" xlink:href="#path-8fcsc59uf6-3"/>
      </g>
      <path d="M177.033236,60.8163853 C175.919972,61.9456837 172.325452,62.0347923 172.325452,62.0347923 C172.325452,62.0347923 172.413375,58.3883374 173.526559,57.2591998 C174.639822,56.1299013 177.903027,56.3768801 177.903027,56.3768801 C177.903027,56.3768801 178.14634,59.6871673 177.033236,60.8163853 Z" id="Mask" fill="#8ecedd" fill-rule="nonzero" transform="translate(175.125497, 59.194401) scale(1, -1) rotate(-14.000000) translate(-175.125497, -59.194401) "/>
      <path d="M20.0933216,87.0614188 L20.0933216,67.7869593 L51.532861,67.7869593 L51.532861,89.814913 L22.858917,89.814913 C21.3315647,89.814913 20.0933216,88.5821806 20.0933216,87.0614188 Z" id="Path" fill="#d3ecef" fill-rule="nonzero" transform="translate(35.813091, 78.800936) rotate(-15.000000) translate(-35.813091, -78.800936) "/>
      <g id="Group" transform="translate(22.544236, 79.242185) rotate(-15.000000) translate(-22.544236, -79.242185) translate(19.755400, 67.996822)" fill="#8ecedd" fill-rule="nonzero">
        <path d="M5.57767139,22.4907259 C5.57767139,20.9571916 4.32910965,19.7140931 2.7888357,19.7140931 C1.24856174,19.7140931 0,20.9571916 0,22.4907259 L0,2.77663283 C0,1.24309852 1.24856174,0 2.7888357,0 C4.32910965,0 5.57767139,1.24309852 5.57767139,2.77663283 L5.57767139,22.4907259 Z" id="Path"/>
      </g>
      <path d="M48.7403836,74.2226725 L48.7403836,90.4351176 L32.442658,90.4351176 L48.7403836,74.2226725 Z M46.4286038,79.7793804 L38.0365585,88.1276821 L46.4286038,88.1276821 L46.4286038,79.7793804 Z" id="Shape" fill="#2c466d" fill-rule="nonzero" transform="translate(40.591521, 82.328895) rotate(-15.000000) translate(-40.591521, -82.328895) "/>
      <g id="Group-2" transform="translate(31.391538, 73.825603) rotate(-15.000000) translate(-31.391538, -73.825603) translate(29.222242, 62.529844)" fill-rule="nonzero">
        <g id="Path">
          <use fill="#32acfc" xlink:href="#path-8fcsc59uf6-4"/>
          <use fill-opacity="0.22" fill="#bbe1fa" xlink:href="#path-8fcsc59uf6-4"/>
        </g>
        <path d="M4.33821985,1.71225691 C4.33821985,0.766628323 3.56822231,3.95399785e-14 2.61843784,3.95399785e-14 L1.71978201,3.95399785e-14 C0.769997536,3.95399785e-14 1.26921041e-14,0.766628323 1.26921041e-14,1.71225691 L1.26921041e-14,3.91810658 L4.33821985,3.91810658 L4.33821985,1.71225691 L4.33821985,1.71225691 Z" id="Path" fill="#2c466d"/>
        <rect id="Rectangle" fill="#d3ecef" x="0.00037184476" y="3.48652529" width="4.33821985" height="1.41913704"/>
        <polygon id="Path" fill="#fff5f3" points="4.33821985 19.1279459 9.29611907e-05 19.1279459 1.31391346 21.2257845 3.02439935 21.2257845"/>
        <polygon id="Path" fill="#d3ecef" opacity="0.448567708" points="4.33821985 19.1279459 2.14703164 19.1279459 2.14703164 21.2257845 3.02439935 21.2257845"/>
        <polygon id="Path" fill="#2c466d" points="3.02439935 21.2257845 1.31391346 21.2257845 2.1691564 22.5915177"/>
        <polygon id="Path" fill="#000a1a" points="3.02439935 21.2257845 2.14703164 21.2257845 2.1691564 22.5915177 2.1691564 22.5915177"/>
      </g>
      <g id="Path" fill-rule="nonzero">
        <use fill="#8ecedd" xlink:href="#path-8fcsc59uf6-5"/>
        <use fill="#65b9cc" xlink:href="#path-8fcsc59uf6-5"/>
      </g>
      <rect id="Rectangle" fill="#2c466d" fill-rule="nonzero" x="80.0234007" y="15.246961" width="50.3562696" height="29.672228"/>
      <g id="Rectangle" fill-rule="nonzero">
        <use fill="#bbe1fa" xlink:href="#path-8fcsc59uf6-6"/>
        <use fill-opacity="0.9" fill="#ffffff00" xlink:href="#path-8fcsc59uf6-6"/>
      </g>
      <g id="Rectangle" fill-rule="nonzero">
        <use fill="#d3ecef" xlink:href="#path-8fcsc59uf6-7"/>
        <use fill-opacity="0.2" fill="#8ecedd" xlink:href="#path-8fcsc59uf6-7"/>
      </g>
      <ellipse id="Oval" fill="#8ecedd" fill-rule="nonzero" cx="105.20251" cy="49.449823" rx="2.21700766" ry="2.26677049"/>
      <path d="M97.5557356,24.3042481 L99.2801016,26.046089 L95.2876023,30.1391225 L99.2801016,34.2324557 L97.5557356,35.9742966 L91.8658096,30.1392724 L97.5557356,24.3042481 Z M112.868137,24.3042481 L111.143771,26.046089 L115.135948,30.1382233 L111.143771,34.2324557 L112.868137,35.9742966 L118.558063,30.1392724 L112.868137,24.3042481 Z M105.962454,22.8522412 L108.299769,23.5268129 L104.427239,37.4263036 L102.089924,36.7517318 L105.962454,22.8522412 Z" id="Shape" fill="#073757" fill-rule="nonzero" opacity="0.699999988"/>
    </g>
  </g>
</svg>