<svg width="118px" height="117px" viewBox="0 0 118 117" fill="none" xmlns="http://www.w3.org/2000/svg" transform="rotate(0) scale(1, 1)">
  <g id="iconfinder___library_book_shelf_archive_3371910 copy 4">
    <circle id="Mask" cx="54.5323" cy="67.3541" r="48.906" fill="#edeff3" />
    <g id="Mask group">
      <mask id="mask0_1_626" style="mask-type:alpha" maskUnits="userSpaceOnUse" x="0" y="0" width="118" height="117">
        <path id="Mask_2" d="M103.438 67.3542C103.438 94.3642 81.5424 116.26 54.5324 116.26C27.5224 116.26 5.62639 94.3642 5.62639 67.3542C-15.4456 4.5 27.5224 0 54.5324 0C81.5424 0 146.054 18.4481 103.438 67.3542Z" fill="#edeff3" />
      </mask>
      <g mask="url(#mask0_1_626)">
        <g id="iconfinder___help_person_support_5220818">
          <path id="Path" d="M96.5744 107.68H14.2064V51.374C14.2064 49.3094 15.8912 47.6202 17.9504 47.6202H92.8304C94.8896 47.6202 96.5744 49.3094 96.5744 51.374V107.68Z" fill="#dbe2ea" />
          <path id="Path_2" d="M72.0224 102.532C72.0224 104.689 70.3592 106.455 68.3264 106.455H42.4544C40.4216 106.455 38.7584 104.689 38.7584 102.532H7.34241V112.338C7.34241 114.495 9.00561 116.26 11.0384 116.26H99.7424C101.775 116.26 103.438 114.495 103.438 112.338V102.532H72.0224Z" fill="#000f38" />
          <g id="Group">
            <path id="Path_3" d="M12.8474 47.8278V40.7795C12.8474 31.2435 19.2738 22.5368 28.6025 20.2564C42.2845 17.1469 54.3082 27.3048 54.3082 40.3649V47.8278" fill="#32acfc" />
            <circle id="Oval" cx="14.9205" cy="47.8278" r="4.14608" fill="#ffffff" />
            <circle id="Oval_2" cx="52.2352" cy="47.8278" r="4.14608" fill="#ffffff" />
            <path id="Path_4" d="M14.9205 40.5721C14.9205 28.7558 25.7003 19.6344 37.9313 22.3294C46.4307 24.1951 52.2352 32.2799 52.2352 40.9867V49.4862C52.2352 58.1929 46.4307 66.0705 37.9313 68.1435C25.7003 70.8385 14.9205 61.7171 14.9205 49.9008V40.5721Z" fill="#ffffff" />
            <path id="Path_5" d="M50.1622 28.3412C50.1622 27.7193 49.9549 27.0974 49.7476 26.4755C48.7111 22.9513 44.9796 16.9395 34.6144 17.1468C20.1031 17.5614 12.2256 24.1952 12.2256 24.1952L16.3717 30.207C16.3717 30.207 19.4812 33.9384 21.9689 33.7311C23.0054 33.7311 24.0419 33.3165 24.8711 32.6946C25.9076 34.5603 27.9807 35.5969 30.0537 35.5969C31.2975 35.5969 32.5414 34.975 33.3706 34.1457C35.029 36.8407 38.1386 38.4991 41.4554 38.2918C46.4307 38.0845 50.3695 33.7311 49.9549 28.7558C50.1622 28.7558 50.1622 28.7558 50.1622 28.3412Z" fill="#32acfc" />
            <path id="Path_6" d="M17.2008 43.6817C17.2008 43.6817 16.1643 32.28 33.5778 32.28C50.9913 32.28 50.1621 43.6817 50.1621 43.6817H52.2352L54.3082 39.5357L48.0891 27.0974L37.3093 22.5367L24.4565 23.9879L16.1643 30.207L13.4694 38.0845L14.0913 43.4744H17.2008V43.6817Z" fill="#32acfc" />
            <path id="Path_7" d="M39.5897 56.12C40.2116 56.12 40.6262 56.7419 40.6262 57.3638C40.0043 60.6807 37.102 63.3756 33.5779 63.3756C30.0537 63.3756 27.1515 60.888 26.5296 57.3638C26.3223 56.7419 26.9442 56.12 27.5661 56.12H39.5897Z" fill="#d9dce1" />
          </g>
          <path id="Path_8" d="M65.6864 64.7803L71.9182 58.4883H102.716C105.001 58.4883 106.87 56.6007 106.87 54.2936V29.5069C106.87 27.1999 105.001 25.3123 102.716 25.3123L69.8409 25.3123C67.5559 25.3123 65.6864 27.1999 65.6864 29.5069V64.7803Z" fill="#32acfc" />
          <g id="Group 7">
            <circle id="Oval_3" cx="85.4649" cy="49.4394" r="1.88458" fill="#ffffff" />
            <path id="Path_9" d="M81.1304 38.1319C81.1304 35.4935 83.5803 33.4204 86.5957 33.9858C88.1033 34.3627 89.4225 35.6819 89.7994 37.1896C90.3648 40.0165 88.2918 42.4664 85.4649 42.4664V45.6702" stroke="#ffffff" stroke-width="3.76916" />
          </g>
        </g>
      </g>
    </g>
  </g>
</svg>